<svg width="64" height="64" viewBox="0 0 64 64" fill="none" xmlns="http://www.w3.org/2000/svg">
  <g clip-path="url(#51bf6a6c-b15a-456d-811c-adbc6eb31f79)">
    <path d="M0 0L23.4076 21.716H23.428L27.6956 17.7576L8.551 0H0Z" fill="#FF8695" />
    <path d="M46.84 0L31.9998 13.7651L17.1595 0H8.55078L27.6954 17.7576H36.3042L55.4489 0H46.84Z" fill="#FFBFC7" />
    <path d="M55.4494 0L36.3047 17.7576L40.5723 21.716H40.5928L64.0003 0H55.4494Z" fill="#FF8695" />
    <path
      d="M34.8045 21.1277H29.1963V12.9812C29.1963 11.4326 30.4517 10.1772 32.0003 10.1772H32.0007C33.5493 10.1772 34.8046 11.4326 34.8046 12.9812V21.1277H34.8045Z"
      fill="#AC6B2F" />
    <path
      d="M32.0006 64.0003C45.0589 64.0003 55.6447 53.4105 55.6447 40.3473C55.6447 27.2841 45.0589 16.6943 32.0006 16.6943C18.9423 16.6943 8.35645 27.2841 8.35645 40.3473C8.35645 53.4105 18.9423 64.0003 32.0006 64.0003Z"
      fill="#C7772E" />
    <path
      d="M32.0009 59.079C42.3412 59.079 50.7236 50.6925 50.7236 40.3473C50.7236 30.0022 42.3412 21.6157 32.0009 21.6157C21.6607 21.6157 13.2783 30.0022 13.2783 40.3473C13.2783 50.6925 21.6607 59.079 32.0009 59.079Z"
      fill="#FFAC5F" />
    <path
      d="M32.0003 21.6157C31.1266 21.6157 30.2671 21.6773 29.4248 21.7937C38.5341 23.0532 45.5719 30.8927 45.5719 40.3472C45.5719 49.8017 38.5341 57.6413 29.4248 58.9007C30.2671 59.0172 31.1266 59.0787 32.0003 59.0787C42.3241 59.0787 50.7229 50.6758 50.7229 40.3471C50.7229 30.0183 42.3241 21.6157 32.0003 21.6157Z"
      fill="#FDA04B" />
    <path
      d="M18.4662 41.3574C19.7091 41.3574 19.7112 39.4258 18.4662 39.4258C17.2232 39.4258 17.2212 41.3574 18.4662 41.3574Z"
      fill="#C7772E" />
    <path d="M20.265 48.1284C21.5079 48.1284 21.51 46.1968 20.265 46.1968C19.0221 46.1968 19.02 48.1284 20.265 48.1284Z"
      fill="#C7772E" />
    <path
      d="M43.7074 48.1763C44.9503 48.1763 44.9524 46.2446 43.7074 46.2446C42.4645 46.2448 42.4624 48.1763 43.7074 48.1763Z"
      fill="#C7772E" />
    <path
      d="M45.5345 41.4131C46.7773 41.4131 46.7795 39.4814 45.5345 39.4814C44.2916 39.4814 44.2896 41.4131 45.5345 41.4131Z"
      fill="#C7772E" />
    <path
      d="M43.7357 34.6421C44.9786 34.6421 44.9807 32.7104 43.7357 32.7104C42.4928 32.7104 42.4907 34.6421 43.7357 34.6421Z"
      fill="#C7772E" />
    <path
      d="M20.2933 34.5937C21.5361 34.5937 21.5383 32.6621 20.2933 32.6621C19.0504 32.6621 19.0484 34.5937 20.2933 34.5937Z"
      fill="#C7772E" />
    <path
      d="M31.9878 50.9707C28.8721 50.9707 26.1982 48.6724 25.7681 45.6249C25.3696 42.8052 28.9655 42.293 29.3651 45.1283C29.5462 46.4118 30.6738 47.3795 31.9878 47.3795C33.4482 47.3795 34.6362 46.2048 34.6362 44.7609C34.6362 43.317 33.4482 42.1424 31.9878 42.1424C29.7412 42.1424 29.7136 38.5514 31.9878 38.5514C33.4482 38.5514 34.6362 37.3767 34.6362 35.9328C34.6362 34.4889 33.4482 33.3143 31.9878 33.3143C30.7248 33.3143 29.632 34.2013 29.3893 35.4233C28.9566 37.6022 25.3896 36.9257 25.8255 34.7313C26.4018 31.8294 28.9936 29.7231 31.9878 29.7231C35.451 29.7231 38.2682 32.5088 38.2682 35.9328C38.2682 37.6343 37.5401 39.0999 36.4382 40.3469C37.5401 41.5939 38.2682 43.0594 38.2682 44.7609C38.2682 48.1849 35.4508 50.9707 31.9878 50.9707Z"
      fill="#C7772E" />
  </g>
  <defs>
    <clipPath id="51bf6a6c-b15a-456d-811c-adbc6eb31f79">
      <rect width="64" height="64" fill="white" />
    </clipPath>
  </defs>
</svg>