<svg width="160" height="160" viewBox="0 0 160 160" fill="none" xmlns="http://www.w3.org/2000/svg">
  <g clip-path="url(#4d571273-f389-4b3e-9b84-e121fc2499e6)">
    <path
      d="M156.661 10.6441L98.1565 52.9395L88.5565 59.8959C83.4709 63.6531 76.5291 63.6531 71.4435 59.8959L61.8435 52.9395L3.26953 10.7136C6.52746 6.15749 11.7902 3.46108 17.3914 3.47869H142.609C148.169 3.48358 153.391 6.14673 156.661 10.6441Z"
      fill="#FFBFC7" />
    <path
      d="M3.26982 10.7143L61.8438 52.9402L5.07863 109.705C1.81906 106.438 -0.00800028 102.008 0.000151887 97.3924V20.8709C-0.0151742 17.224 1.12972 13.667 3.26982 10.7143Z"
      fill="#FFAAB4" />
    <path
      d="M160 20.8702V97.392C160.008 102.008 158.181 106.437 154.922 109.705L98.1567 52.9399L156.661 10.6441C158.833 13.6109 160.002 17.1929 160 20.8702Z"
      fill="#FFAAB4" />
    <path
      d="M104.348 128.696C99.7289 128.696 97.3915 125.218 97.3915 118.261C97.5053 108.542 89.7184 100.57 79.9987 100.457C70.279 100.343 62.3078 108.13 62.194 117.849C62.0802 127.569 69.8672 135.54 79.5868 135.654C84.7961 135.715 89.7647 133.465 93.155 129.51C95.4647 133.468 99.7687 135.83 104.348 135.652C118.261 135.652 118.261 122.56 118.261 118.261C118.261 97.1305 101.132 80.0002 80.001 79.9995C58.8702 79.9989 41.7399 97.1288 41.7393 118.26C41.7389 139.391 58.8686 156.521 79.9993 156.522C89.927 156.522 99.4664 152.663 106.602 145.761C107.983 144.416 108.012 142.206 106.668 140.825C105.323 139.444 103.114 139.414 101.732 140.759C89.2886 152.761 69.471 152.403 57.4687 139.959C45.4664 127.516 45.8245 107.698 58.2683 95.6957C70.7121 83.6934 90.5297 84.0515 102.532 96.4953C108.168 102.339 111.313 110.143 111.305 118.262C111.305 126.06 109.552 128.696 104.348 128.696ZM80.0003 128.696C74.2374 128.696 69.5655 124.024 69.5655 118.261C69.5655 112.498 74.2374 107.826 80.0003 107.826C85.7632 107.826 90.4351 112.498 90.4351 118.261C90.4351 124.024 85.7632 128.696 80.0003 128.696Z"
      fill="#FF697B" />
    <path
      d="M98.1563 52.9395L88.5563 59.8959C83.4707 63.6531 76.5289 63.6531 71.4433 59.8959L61.8433 52.9395L5.07812 109.705C8.34584 112.964 12.7754 114.791 17.3912 114.783H34.9562C36.838 89.908 58.5283 71.2682 83.4035 73.15C105.662 74.8339 123.352 92.5245 125.036 114.783H142.608C147.224 114.791 151.654 112.964 154.922 109.705L98.1563 52.9395Z"
      fill="#FF8695" />
  </g>
  <defs>
    <clipPath id="4d571273-f389-4b3e-9b84-e121fc2499e6">
      <rect width="160" height="160" fill="white" />
    </clipPath>
  </defs>
</svg>