<svg width="36" height="36" viewBox="0 0 36 36" fill="none" xmlns="http://www.w3.org/2000/svg">
<path fill-rule="evenodd" clip-rule="evenodd" d="M18.0003 7.90087C20.6403 4.81087 25.5303 3.55087 29.4903 6.25087C31.5903 7.69087 32.9103 10.1209 33.0003 12.6709C33.1953 18.4909 28.0503 23.1559 20.1753 30.2959L20.0103 30.4459C18.8703 31.4959 17.1153 31.4959 15.9753 30.4609L15.8253 30.3259L15.7347 30.2435C7.91077 23.135 2.79113 18.4835 3.00032 12.6859C3.09032 10.1209 4.41032 7.69087 6.51032 6.25087C10.4703 3.53587 15.3603 4.81087 18.0003 7.90087ZM18.0002 28.2409L18.1502 28.0909C25.2902 21.6259 30.0002 17.3509 30.0002 13.0159C30.0002 10.0159 27.7502 7.76591 24.7502 7.76591C22.4402 7.76591 20.1902 9.25091 19.4102 11.3059H16.6052C15.8102 9.25091 13.5602 7.76591 11.2502 7.76591C8.25021 7.76591 6.00021 10.0159 6.00021 13.0159C6.00021 17.3509 10.7102 21.6259 17.8502 28.0909L18.0002 28.2409Z" fill="#FF8695"/>
</svg>
