<svg width="64" height="64" viewBox="0 0 64 64" fill="none" xmlns="http://www.w3.org/2000/svg">
  <g clip-path="url(#c7940cce-cc08-465b-b0f3-badb1471d9f7)">
    <path d="M0 0L23.4076 21.716H23.428L27.6956 17.7576L8.551 0H0Z" fill="#FF8695" />
    <path d="M46.84 0L31.9998 13.7651L17.1595 0H8.55078L27.6954 17.7576H36.3042L55.4489 0H46.84Z" fill="#FFBFC7" />
    <path d="M55.4494 0L36.3047 17.7576L40.5723 21.716H40.5928L64.0003 0H55.4494Z" fill="#FF8695" />
    <path
      d="M34.8047 21.1269H29.1963V12.9803C29.1963 11.4316 30.4517 10.1763 32.0003 10.1763H32.0007C33.5493 10.1763 34.8047 11.4316 34.8047 12.9803V21.1269Z"
      fill="#FFC72E" />
    <path
      d="M34.8047 21.1269H29.1963V12.9803C29.1963 11.4316 30.4517 10.1763 32.0003 10.1763H32.0007C33.5493 10.1763 34.8047 11.4316 34.8047 12.9803V21.1269Z"
      fill="#FFA621" />
    <path
      d="M32 64.0001C45.0585 64.0001 55.6445 53.4101 55.6445 40.3467C55.6445 27.2833 45.0585 16.6934 32 16.6934C18.9415 16.6934 8.35547 27.2833 8.35547 40.3467C8.35547 53.4101 18.9415 64.0001 32 64.0001Z"
      fill="#FFC72E" />
    <path
      d="M32.0002 59.0785C42.3406 59.0785 50.7231 50.6919 50.7231 40.3466C50.7231 30.0013 42.3406 21.6147 32.0002 21.6147C21.6599 21.6147 13.2773 30.0013 13.2773 40.3466C13.2773 50.6919 21.6599 59.0785 32.0002 59.0785Z"
      fill="#FFFFBF" />
    <path
      d="M32.0003 21.6147C31.1266 21.6147 30.2671 21.6762 29.4248 21.7927C38.5343 23.0522 45.5723 30.8919 45.5723 40.3466C45.5723 49.8012 38.5343 57.641 29.4248 58.9005C30.2671 59.017 31.1266 59.0785 32.0003 59.0785C42.3242 59.0785 50.7232 50.6755 50.7232 40.3466C50.7232 30.0177 42.3242 21.6147 32.0003 21.6147Z"
      fill="#FFF68F" />
    <path
      d="M33.0729 50.912C31.961 50.912 31.0564 50.0267 31.0564 48.9385V33.6115H29.2958C28.1839 33.6115 27.2793 32.7262 27.2793 31.638C27.2793 30.5499 28.1839 29.6646 29.2958 29.6646H33.0729C34.1848 29.6646 35.0894 30.5499 35.0894 31.638V48.9385C35.0894 50.0268 34.1848 50.912 33.0729 50.912Z"
      fill="#FFC72E" />
    <path
      d="M18.4652 41.2847C19.7081 41.2847 19.7102 39.353 18.4652 39.353C17.2223 39.353 17.2202 41.2847 18.4652 41.2847Z"
      fill="#FFC72E" />
    <path
      d="M20.2641 48.0556C21.5069 48.0556 21.5091 46.124 20.2641 46.124C19.0211 46.1241 19.0191 48.0556 20.2641 48.0556Z"
      fill="#FFC72E" />
    <path
      d="M43.7074 48.104C44.9502 48.104 44.9524 46.1724 43.7074 46.1724C42.4645 46.1724 42.4624 48.104 43.7074 48.104Z"
      fill="#FFC72E" />
    <path
      d="M45.5345 41.3403C46.7773 41.3403 46.7795 39.4087 45.5345 39.4087C44.2916 39.4087 44.2896 41.3403 45.5345 41.3403Z"
      fill="#FFC72E" />
    <path
      d="M43.7347 34.5693C44.9775 34.5693 44.9797 32.6377 43.7347 32.6377C42.4918 32.6377 42.4898 34.5693 43.7347 34.5693Z"
      fill="#FFC72E" />
    <path
      d="M20.2923 34.521C21.5352 34.521 21.5373 32.5894 20.2923 32.5894C19.0495 32.5894 19.0473 34.521 20.2923 34.521Z"
      fill="#FFC72E" />
  </g>
  <defs>
    <clipPath id="c7940cce-cc08-465b-b0f3-badb1471d9f7">
      <rect width="64" height="64" fill="white" />
    </clipPath>
  </defs>
</svg>