<svg viewBox="0 0 123 80" fill="none" xmlns="http://www.w3.org/2000/svg">
  <path
    d="M13.8851 21.384C12.7971 21.384 11.8051 21.12 10.9091 20.592C10.0131 20.064 9.30513 19.336 8.78513 18.408V21H7.03313V0.36H8.78513V11.268C9.28913 10.348 9.98513 9.628 10.8731 9.108C11.7611 8.588 12.7531 8.328 13.8491 8.328C15.0251 8.328 16.0771 8.612 17.0051 9.18C17.9331 9.748 18.6611 10.524 19.1891 11.508C19.7251 12.484 19.9931 13.6 19.9931 14.856C19.9931 16.12 19.7211 17.244 19.1771 18.228C18.6411 19.212 17.9131 19.984 16.9931 20.544C16.0731 21.104 15.0371 21.384 13.8851 21.384ZM13.4531 19.86C14.3731 19.86 15.1891 19.648 15.9011 19.224C16.6131 18.792 17.1691 18.2 17.5691 17.448C17.9771 16.688 18.1811 15.828 18.1811 14.868C18.1811 13.892 17.9771 13.028 17.5691 12.276C17.1611 11.516 16.6011 10.924 15.8891 10.5C15.1851 10.068 14.3731 9.852 13.4531 9.852C12.5331 9.852 11.7171 10.068 11.0051 10.5C10.2931 10.924 9.73313 11.516 9.32513 12.276C8.91713 13.028 8.71313 13.892 8.71313 14.868C8.71313 15.828 8.91313 16.688 9.31313 17.448C9.72113 18.2 10.2811 18.792 10.9931 19.224C11.7131 19.648 12.5331 19.86 13.4531 19.86ZM29.5271 21.384C28.3751 21.384 27.3351 21.104 26.4071 20.544C25.4871 19.976 24.7551 19.2 24.2111 18.216C23.6751 17.232 23.4071 16.108 23.4071 14.844C23.4071 13.596 23.6711 12.484 24.1991 11.508C24.7351 10.524 25.4631 9.748 26.3831 9.18C27.3111 8.612 28.3591 8.328 29.5271 8.328C30.6391 8.328 31.6471 8.588 32.5511 9.108C33.4551 9.628 34.1431 10.348 34.6151 11.268V8.712H36.3671V21H34.6151V18.408C34.0871 19.336 33.3791 20.064 32.4911 20.592C31.6031 21.12 30.6151 21.384 29.5271 21.384ZM29.9591 19.86C30.8791 19.86 31.6911 19.648 32.3951 19.224C33.1071 18.792 33.6671 18.2 34.0751 17.448C34.4831 16.688 34.6871 15.824 34.6871 14.856C34.6871 13.88 34.4831 13.016 34.0751 12.264C33.6751 11.512 33.1191 10.924 32.4071 10.5C31.6951 10.068 30.8791 9.852 29.9591 9.852C29.0391 9.852 28.2231 10.068 27.5111 10.5C26.7991 10.924 26.2391 11.512 25.8311 12.264C25.4231 13.016 25.2191 13.88 25.2191 14.856C25.2191 15.824 25.4231 16.688 25.8311 17.448C26.2391 18.2 26.7991 18.792 27.5111 19.224C28.2231 19.648 29.0391 19.86 29.9591 19.86ZM47.2451 21.384C46.3251 21.384 45.4611 21.224 44.6531 20.904C43.8451 20.576 43.1371 20.116 42.5291 19.524C41.9211 18.932 41.4451 18.24 41.1011 17.448C40.7571 16.656 40.5851 15.792 40.5851 14.856C40.5851 13.928 40.7531 13.068 41.0891 12.276C41.4251 11.484 41.8931 10.792 42.4931 10.2C43.1011 9.608 43.8091 9.148 44.6171 8.82C45.4251 8.492 46.3011 8.328 47.2451 8.328C48.0531 8.328 48.8211 8.448 49.5491 8.688C50.2771 8.928 50.9051 9.26 51.4331 9.684L50.7131 10.86C49.8171 10.164 48.7291 9.816 47.4491 9.816C46.4411 9.816 45.5531 10.04 44.7851 10.488C44.0251 10.928 43.4331 11.532 43.0091 12.3C42.5851 13.06 42.3731 13.912 42.3731 14.856C42.3731 15.808 42.5891 16.668 43.0211 17.436C43.4531 18.196 44.0531 18.796 44.8211 19.236C45.5891 19.676 46.4691 19.896 47.4611 19.896C48.0851 19.896 48.6731 19.808 49.2251 19.632C49.7851 19.448 50.2771 19.188 50.7011 18.852L51.4331 20.028C50.8971 20.444 50.2691 20.772 49.5491 21.012C48.8291 21.26 48.0611 21.384 47.2451 21.384ZM55.2441 21V0.347999H56.9961V10.392C57.3321 9.816 57.8521 9.328 58.5561 8.928C59.2601 8.528 60.1201 8.328 61.1361 8.328C62.0881 8.328 62.9081 8.524 63.5961 8.916C64.2841 9.308 64.8121 9.88 65.1801 10.632C65.5481 11.376 65.7321 12.276 65.7321 13.332V21H63.9801V13.668C63.9801 12.396 63.6841 11.424 63.0921 10.752C62.5001 10.08 61.6641 9.744 60.5841 9.744C59.8321 9.744 59.1881 9.896 58.6521 10.2C58.1241 10.504 57.7161 10.904 57.4281 11.4C57.1401 11.888 56.9961 12.42 56.9961 12.996V21H55.2441ZM76.4259 21.384C75.1379 21.384 73.9859 21.1 72.9699 20.532C71.9619 19.964 71.1699 19.192 70.5939 18.216C70.0179 17.232 69.7299 16.128 69.7299 14.904C69.7299 13.984 69.8939 13.128 70.2219 12.336C70.5579 11.536 71.0219 10.836 71.6139 10.236C72.2059 9.636 72.8939 9.168 73.6779 8.832C74.4619 8.496 75.2979 8.328 76.1859 8.328C77.4019 8.328 78.4819 8.596 79.4259 9.132C80.3779 9.66 81.1299 10.392 81.6819 11.328C82.2419 12.264 82.5379 13.344 82.5699 14.568C82.5699 14.664 82.5659 14.744 82.5579 14.808C82.5579 14.864 82.5499 14.936 82.5339 15.024H71.4699C71.4699 15.984 71.6859 16.832 72.1179 17.568C72.5499 18.304 73.1419 18.884 73.8939 19.308C74.6539 19.724 75.5219 19.932 76.4979 19.932C77.4259 19.932 78.2579 19.74 78.9939 19.356C79.7379 18.964 80.3579 18.404 80.8539 17.676L82.1499 18.372C81.5659 19.324 80.7699 20.064 79.7619 20.592C78.7619 21.12 77.6499 21.384 76.4259 21.384ZM71.5659 13.704H80.8179C80.7139 12.936 80.4459 12.26 80.0139 11.676C79.5819 11.084 79.0339 10.62 78.3699 10.284C77.7139 9.948 76.9939 9.78 76.2099 9.78C75.4019 9.78 74.6659 9.948 74.0019 10.284C73.3379 10.612 72.7899 11.072 72.3579 11.664C71.9339 12.248 71.6699 12.928 71.5659 13.704ZM86.6503 21V0.36H88.4023V21H86.6503ZM99.4324 21.384C98.1524 21.384 96.9964 21.108 95.9644 20.556C94.9404 20.004 94.1284 19.236 93.5284 18.252C92.9284 17.268 92.6284 16.136 92.6284 14.856C92.6284 13.568 92.9284 12.436 93.5284 11.46C94.1284 10.476 94.9404 9.708 95.9644 9.156C96.9884 8.604 98.1444 8.328 99.4324 8.328C100.712 8.328 101.864 8.604 102.888 9.156C103.92 9.708 104.736 10.476 105.336 11.46C105.936 12.436 106.236 13.568 106.236 14.856C106.236 16.136 105.936 17.268 105.336 18.252C104.736 19.236 103.92 20.004 102.888 20.556C101.864 21.108 100.712 21.384 99.4324 21.384ZM99.4324 19.824C100.392 19.824 101.248 19.612 102 19.188C102.752 18.764 103.344 18.18 103.776 17.436C104.208 16.684 104.424 15.824 104.424 14.856C104.424 13.888 104.208 13.032 103.776 12.288C103.344 11.536 102.752 10.948 102 10.524C101.248 10.1 100.392 9.888 99.4324 9.888C98.4724 9.888 97.6164 10.1 96.8644 10.524C96.1124 10.948 95.5204 11.536 95.0884 12.288C94.6564 13.032 94.4404 13.888 94.4404 14.856C94.4404 15.816 94.6564 16.672 95.0884 17.424C95.5204 18.176 96.1124 18.764 96.8644 19.188C97.6164 19.612 98.4724 19.824 99.4324 19.824ZM110.416 21V8.712H112.168V10.524C112.56 9.804 113.064 9.26 113.68 8.892C114.304 8.516 115.024 8.328 115.84 8.328C116.2 8.328 116.564 8.368 116.932 8.448C117.308 8.528 117.632 8.632 117.904 8.76L117.184 10.236C116.944 10.116 116.668 10.024 116.356 9.96C116.052 9.896 115.76 9.864 115.48 9.864C114.912 9.864 114.376 10.008 113.872 10.296C113.368 10.584 112.956 10.96 112.636 11.424C112.324 11.88 112.168 12.368 112.168 12.888V21H110.416ZM19.8417 73V52.36H21.5937V73H19.8417ZM32.5158 73.384C31.2278 73.384 30.0758 73.1 29.0598 72.532C28.0518 71.964 27.2598 71.192 26.6838 70.216C26.1078 69.232 25.8198 68.128 25.8198 66.904C25.8198 65.984 25.9838 65.128 26.3118 64.336C26.6478 63.536 27.1118 62.836 27.7038 62.236C28.2958 61.636 28.9838 61.168 29.7678 60.832C30.5518 60.496 31.3878 60.328 32.2758 60.328C33.4918 60.328 34.5718 60.596 35.5158 61.132C36.4678 61.66 37.2198 62.392 37.7718 63.328C38.3318 64.264 38.6278 65.344 38.6598 66.568C38.6598 66.664 38.6558 66.744 38.6478 66.808C38.6478 66.864 38.6398 66.936 38.6238 67.024H27.5598C27.5598 67.984 27.7758 68.832 28.2078 69.568C28.6398 70.304 29.2318 70.884 29.9838 71.308C30.7438 71.724 31.6118 71.932 32.5878 71.932C33.5158 71.932 34.3478 71.74 35.0838 71.356C35.8278 70.964 36.4478 70.404 36.9438 69.676L38.2398 70.372C37.6558 71.324 36.8598 72.064 35.8518 72.592C34.8518 73.12 33.7398 73.384 32.5158 73.384ZM27.6558 65.704H36.9078C36.8038 64.936 36.5358 64.26 36.1038 63.676C35.6718 63.084 35.1238 62.62 34.4598 62.284C33.8038 61.948 33.0838 61.78 32.2998 61.78C31.4918 61.78 30.7558 61.948 30.0918 62.284C29.4278 62.612 28.8798 63.072 28.4478 63.664C28.0238 64.248 27.7598 64.928 27.6558 65.704ZM47.9138 73.384C46.7618 73.384 45.7218 73.104 44.7938 72.544C43.8738 71.976 43.1418 71.2 42.5978 70.216C42.0618 69.232 41.7938 68.108 41.7938 66.844C41.7938 65.596 42.0578 64.484 42.5858 63.508C43.1218 62.524 43.8498 61.748 44.7698 61.18C45.6978 60.612 46.7458 60.328 47.9138 60.328C49.0258 60.328 50.0338 60.588 50.9378 61.108C51.8418 61.628 52.5298 62.348 53.0018 63.268V60.712H54.7538V73H53.0018V70.408C52.4738 71.336 51.7658 72.064 50.8778 72.592C49.9898 73.12 49.0018 73.384 47.9138 73.384ZM48.3458 71.86C49.2658 71.86 50.0778 71.648 50.7818 71.224C51.4938 70.792 52.0538 70.2 52.4618 69.448C52.8698 68.688 53.0738 67.824 53.0738 66.856C53.0738 65.88 52.8698 65.016 52.4618 64.264C52.0618 63.512 51.5058 62.924 50.7938 62.5C50.0818 62.068 49.2658 61.852 48.3458 61.852C47.4258 61.852 46.6098 62.068 45.8978 62.5C45.1858 62.924 44.6258 63.512 44.2178 64.264C43.8098 65.016 43.6058 65.88 43.6058 66.856C43.6058 67.824 43.8098 68.688 44.2178 69.448C44.6258 70.2 45.1858 70.792 45.8978 71.224C46.6098 71.648 47.4258 71.86 48.3458 71.86ZM65.3438 79.6C63.7918 79.6 62.4798 79.296 61.4078 78.688C60.3358 78.08 59.5398 77.192 59.0198 76.024L60.4958 75.34C60.8718 76.188 61.4958 76.86 62.3678 77.356C63.2398 77.86 64.2318 78.112 65.3438 78.112C66.2798 78.112 67.1158 77.924 67.8518 77.548C68.5958 77.18 69.1798 76.644 69.6038 75.94C70.0358 75.236 70.2518 74.392 70.2518 73.408V70.408C69.7398 71.336 69.0358 72.064 68.1398 72.592C67.2518 73.12 66.2598 73.384 65.1638 73.384C64.0198 73.384 62.9838 73.104 62.0558 72.544C61.1358 71.984 60.4038 71.212 59.8598 70.228C59.3238 69.244 59.0558 68.12 59.0558 66.856C59.0558 65.6 59.3238 64.484 59.8598 63.508C60.3958 62.524 61.1238 61.748 62.0438 61.18C62.9718 60.612 64.0238 60.328 65.1998 60.328C66.2878 60.328 67.2758 60.588 68.1638 61.108C69.0598 61.628 69.7558 62.348 70.2518 63.268V60.712H72.0038V73.336C72.0038 74.696 71.7358 75.84 71.1998 76.768C70.6638 77.704 69.8958 78.408 68.8958 78.88C67.9038 79.36 66.7198 79.6 65.3438 79.6ZM65.5838 71.86C66.5118 71.86 67.3318 71.648 68.0438 71.224C68.7558 70.792 69.3158 70.2 69.7238 69.448C70.1318 68.688 70.3358 67.828 70.3358 66.868C70.3358 65.892 70.1318 65.028 69.7238 64.276C69.3158 63.516 68.7558 62.924 68.0438 62.5C67.3318 62.068 66.5158 61.852 65.5958 61.852C64.6758 61.852 63.8598 62.068 63.1478 62.5C62.4358 62.924 61.8758 63.516 61.4678 64.276C61.0598 65.028 60.8558 65.892 60.8558 66.868C60.8558 67.828 61.0558 68.688 61.4558 69.448C61.8638 70.2 62.4238 70.792 63.1358 71.224C63.8558 71.648 64.6718 71.86 65.5838 71.86ZM82.1378 73.384C80.2738 73.384 78.9418 72.964 78.1418 72.124C77.3418 71.284 76.9418 69.88 76.9418 67.912V60.712H78.6938V67.6C78.6938 69.152 78.9578 70.26 79.4858 70.924C80.0138 71.58 80.8978 71.908 82.1378 71.908C83.3858 71.908 84.2698 71.58 84.7898 70.924C85.3178 70.26 85.5818 69.152 85.5818 67.6V60.712H87.3338V67.912C87.3338 69.88 86.9338 71.284 86.1338 72.124C85.3418 72.964 84.0098 73.384 82.1378 73.384ZM98.047 73.384C96.759 73.384 95.607 73.1 94.591 72.532C93.583 71.964 92.791 71.192 92.215 70.216C91.639 69.232 91.351 68.128 91.351 66.904C91.351 65.984 91.515 65.128 91.843 64.336C92.179 63.536 92.643 62.836 93.235 62.236C93.827 61.636 94.515 61.168 95.299 60.832C96.083 60.496 96.919 60.328 97.807 60.328C99.023 60.328 100.103 60.596 101.047 61.132C101.999 61.66 102.751 62.392 103.303 63.328C103.863 64.264 104.159 65.344 104.191 66.568C104.191 66.664 104.187 66.744 104.179 66.808C104.179 66.864 104.171 66.936 104.155 67.024H93.091C93.091 67.984 93.307 68.832 93.739 69.568C94.171 70.304 94.763 70.884 95.515 71.308C96.275 71.724 97.143 71.932 98.119 71.932C99.047 71.932 99.879 71.74 100.615 71.356C101.359 70.964 101.979 70.404 102.475 69.676L103.771 70.372C103.187 71.324 102.391 72.064 101.383 72.592C100.383 73.12 99.271 73.384 98.047 73.384ZM93.187 65.704H102.439C102.335 64.936 102.067 64.26 101.635 63.676C101.203 63.084 100.655 62.62 99.991 62.284C99.335 61.948 98.615 61.78 97.831 61.78C97.023 61.78 96.287 61.948 95.623 62.284C94.959 62.612 94.411 63.072 93.979 63.664C93.555 64.248 93.291 64.928 93.187 65.704Z"
    fill="white" />
  <path
    d="M21.8398 29.5977C21.8398 29.6992 21.7891 29.7839 21.6875 29.8516C21.6029 29.9193 21.5013 29.987 21.3828 30.0547C21.2812 30.1224 21.1712 30.1986 21.0527 30.2832C20.9512 30.3678 20.8835 30.4694 20.8496 30.5879H20.6211C20.5195 30.5879 20.4688 30.6217 20.4688 30.6895H20.3926C20.2402 30.6895 20.1387 30.6471 20.0879 30.5625C20.0371 30.4609 19.9271 30.4102 19.7578 30.4102C19.3346 30.4102 18.9115 30.4186 18.4883 30.4355C18.082 30.4355 17.6673 30.444 17.2441 30.4609C16.0762 30.4609 14.9251 30.5033 13.791 30.5879C12.6738 30.6556 11.5651 30.8926 10.4648 31.2988C10.431 31.3158 10.3887 31.3242 10.3379 31.3242C10.2533 31.3242 10.2025 31.2904 10.1855 31.2227C10.1855 31.1549 10.1432 31.1211 10.0586 31.1211C9.82161 31.1211 9.60156 31.1465 9.39844 31.1973C9.19531 31.248 8.97526 31.2819 8.73828 31.2988C8.46745 31.5358 8.1543 31.7305 7.79883 31.8828C7.46029 32.0352 7.10482 32.1875 6.73242 32.3398C6.37695 32.4753 6.02995 32.6276 5.69141 32.7969C5.35286 32.9492 5.05664 33.1523 4.80273 33.4062C4.83659 33.6094 4.86198 33.8125 4.87891 34.0156C4.91276 34.2018 4.92969 34.388 4.92969 34.5742C4.92969 35.3021 4.86198 36.0215 4.72656 36.7324C4.59115 37.4264 4.52344 38.1289 4.52344 38.8398V39.2207C4.52344 39.3392 4.5319 39.4661 4.54883 39.6016C4.58268 39.6862 4.64193 39.7454 4.72656 39.7793C4.82812 39.7962 4.91276 39.8301 4.98047 39.8809C5.20052 39.7285 5.42057 39.61 5.64062 39.5254C5.8776 39.4238 6.11458 39.3307 6.35156 39.2461C6.60547 39.1445 6.84245 39.0514 7.0625 38.9668C7.29948 38.8652 7.52799 38.7467 7.74805 38.6113H8.45898C8.64518 38.4759 8.86523 38.3743 9.11914 38.3066C9.37305 38.2389 9.54232 38.0866 9.62695 37.8496C9.66081 37.8835 9.69466 37.9004 9.72852 37.9004H9.83008C10.0332 37.9004 10.2363 37.8581 10.4395 37.7734C10.6595 37.6888 10.8796 37.6042 11.0996 37.5195C11.3197 37.418 11.5397 37.3249 11.7598 37.2402C11.9798 37.1556 12.2083 37.1133 12.4453 37.1133C12.4961 37.1133 12.5384 37.1217 12.5723 37.1387C12.623 37.1387 12.6738 37.1387 12.7246 37.1387C12.8262 36.9694 12.9701 36.8424 13.1562 36.7578C13.3424 36.6562 13.5371 36.5716 13.7402 36.5039C13.9434 36.4362 14.1465 36.3685 14.3496 36.3008C14.5697 36.2331 14.7559 36.1484 14.9082 36.0469H15.0098C15.1113 36.0469 15.1875 36.0723 15.2383 36.123C15.306 36.1569 15.3822 36.1908 15.4668 36.2246C15.9408 35.9199 16.4232 35.7676 16.9141 35.7676C17.4219 35.7507 17.9466 35.7168 18.4883 35.666C18.6068 35.8691 18.7083 36.0384 18.793 36.1738C18.8945 36.2923 18.9453 36.4701 18.9453 36.707C18.9453 36.8255 18.9368 36.9102 18.9199 36.9609C18.7337 37.0286 18.5898 37.0879 18.4883 37.1387L18.209 37.291C18.1243 37.3249 18.0228 37.3587 17.9043 37.3926C17.7858 37.4095 17.6165 37.418 17.3965 37.418C17.2611 37.418 17.2018 37.4603 17.2188 37.5449C17.2357 37.6126 17.1934 37.6549 17.0918 37.6719C16.8548 37.7565 16.6178 37.8242 16.3809 37.875C16.1439 37.9258 15.9069 37.9935 15.6699 38.0781C15.179 38.2305 14.6882 38.3997 14.1973 38.5859C13.7233 38.7552 13.2324 38.8906 12.7246 38.9922C12.3014 39.3307 11.8444 39.61 11.3535 39.8301C10.8626 40.0332 10.3548 40.2025 9.83008 40.3379C9.27148 40.7441 8.72135 41.125 8.17969 41.4805C7.63802 41.819 7.02865 42.1068 6.35156 42.3438C6.26693 42.4284 6.16536 42.5046 6.04688 42.5723C5.92839 42.64 5.85221 42.7415 5.81836 42.877C5.78451 42.877 5.74219 42.877 5.69141 42.877C5.65755 42.86 5.61523 42.8516 5.56445 42.8516C5.32747 42.8516 5.14128 42.9108 5.00586 43.0293C4.88737 43.1309 4.73503 43.1986 4.54883 43.2324C4.46419 43.4863 4.42188 43.7064 4.42188 43.8926C4.42188 44.1296 4.46419 44.3411 4.54883 44.5273C4.63346 44.7135 4.73503 44.8913 4.85352 45.0605C4.98893 45.2298 5.12435 45.3991 5.25977 45.5684C5.41211 45.7207 5.53906 45.89 5.64062 46.0762C5.60677 46.2793 5.53906 46.4401 5.4375 46.5586C5.35286 46.694 5.2513 46.8125 5.13281 46.9141C5.01432 47.0326 4.89583 47.151 4.77734 47.2695C4.67578 47.388 4.59961 47.5404 4.54883 47.7266C4.24414 47.7773 3.94792 47.8027 3.66016 47.8027C3.47396 47.8027 3.2793 47.7773 3.07617 47.7266C2.88997 47.6927 2.71224 47.625 2.54297 47.5234C2.27214 47.151 2.07747 46.7533 1.95898 46.3301C1.85742 45.9069 1.71354 45.4837 1.52734 45.0605L1.55273 44.8828C1.55273 44.5104 1.48503 44.1888 1.34961 43.918C1.23112 43.6302 1.04492 43.3424 0.791016 43.0547C0.807943 43.0208 0.816406 42.9616 0.816406 42.877C0.816406 42.6569 0.748698 42.4538 0.613281 42.2676C0.647135 41.8783 0.748698 41.5736 0.917969 41.3535C1.10417 41.1335 1.30729 40.888 1.52734 40.6172V40.3125C1.52734 39.5846 1.58659 38.8737 1.70508 38.1797C1.84049 37.4688 1.9082 36.7578 1.9082 36.0469C1.9082 35.6068 1.87435 35.2174 1.80664 34.8789C1.75586 34.862 1.68815 34.8535 1.60352 34.8535C1.51888 34.8535 1.45117 34.8789 1.40039 34.9297C1.34961 34.9635 1.30729 35.0059 1.27344 35.0566C1.23958 35.1074 1.19727 35.1582 1.14648 35.209C1.11263 35.2598 1.05339 35.2936 0.96875 35.3105C0.68099 35.2598 0.494792 35.1243 0.410156 34.9043C0.325521 34.6842 0.283203 34.4388 0.283203 34.168C0.283203 34.0156 0.291667 33.8633 0.308594 33.7109C0.325521 33.5586 0.342448 33.3978 0.359375 33.2285C1.0026 32.5176 1.77279 31.8574 2.66992 31.248C3.56706 30.6387 4.45573 30.1478 5.33594 29.7754C5.38672 29.7585 5.44596 29.75 5.51367 29.75C5.58138 29.75 5.64062 29.7669 5.69141 29.8008C5.74219 29.8177 5.80143 29.8262 5.86914 29.8262C5.91992 29.8262 5.96224 29.8092 5.99609 29.7754C6.16536 29.7754 6.28385 29.7246 6.35156 29.623C6.41927 29.5215 6.51237 29.4199 6.63086 29.3184C6.74935 29.403 6.85091 29.4453 6.93555 29.4453C7.10482 29.4453 7.27409 29.3691 7.44336 29.2168C7.61263 29.0645 7.79883 28.9714 8.00195 28.9375C8.7806 28.8021 9.54232 28.6921 10.2871 28.6074C11.0488 28.5228 11.8021 28.3281 12.5469 28.0234C12.7161 28.1081 12.8854 28.1589 13.0547 28.1758C13.224 28.1927 13.3932 28.2012 13.5625 28.2012C13.7487 28.2012 13.9518 28.1842 14.1719 28.1504C14.4089 28.0996 14.5951 27.998 14.7305 27.8457C15.2721 27.9134 15.8477 27.9388 16.457 27.9219C17.0833 27.9049 17.7012 27.9134 18.3105 27.9473C18.9368 27.9811 19.5378 28.0658 20.1133 28.2012C20.6888 28.3366 21.1966 28.582 21.6367 28.9375C21.6706 29.056 21.7129 29.166 21.7637 29.2676C21.8145 29.3691 21.8398 29.4792 21.8398 29.5977ZM39.2324 44.1465C39.1816 44.3835 39.0716 44.5781 38.9023 44.7305C38.75 44.8659 38.5638 44.9759 38.3438 45.0605C38.1237 45.1452 37.8952 45.2044 37.6582 45.2383C37.4382 45.2552 37.235 45.2637 37.0488 45.2637C36.9642 45.2637 36.8796 45.2637 36.7949 45.2637C36.7272 45.2467 36.651 45.2383 36.5664 45.2383C36.4818 45.2383 36.4395 45.2806 36.4395 45.3652C36.4395 45.4499 36.3971 45.5091 36.3125 45.543C36.2279 45.5091 36.1432 45.4837 36.0586 45.4668C35.974 45.4499 35.8893 45.4414 35.8047 45.4414C35.6862 45.4414 35.5677 45.4499 35.4492 45.4668C35.3477 45.4837 35.2461 45.4922 35.1445 45.4922C35.0091 45.4922 34.9076 45.4753 34.8398 45.4414C34.7891 45.4076 34.7383 45.3737 34.6875 45.3398C34.6536 45.2891 34.6113 45.2383 34.5605 45.1875C34.5267 45.1367 34.4674 45.0944 34.3828 45.0605C34.2643 45.0098 34.1628 45.0013 34.0781 45.0352C34.0104 45.069 33.9004 45.0182 33.748 44.8828C33.5449 44.7135 33.3672 44.5104 33.2148 44.2734C33.0794 44.0195 32.944 43.7572 32.8086 43.4863C32.6732 43.2155 32.5293 42.9447 32.377 42.6738C32.2246 42.403 32.0469 42.166 31.8438 41.9629H31.6406C31.3359 41.9629 31.1243 42.0898 31.0059 42.3438C30.9212 42.293 30.8366 42.2337 30.752 42.166C30.6673 42.0814 30.5742 42.0137 30.4727 41.9629C30.0833 42.0814 29.6771 42.1829 29.2539 42.2676C28.8307 42.3522 28.4076 42.3945 27.9844 42.3945H27.6289C27.5273 42.3945 27.4173 42.3776 27.2988 42.3438C27.1296 42.4115 26.9772 42.4961 26.8418 42.5977C26.7064 42.6823 26.554 42.7246 26.3848 42.7246C26.2832 42.7246 26.1647 42.6908 26.0293 42.623C25.9277 42.623 25.877 42.6654 25.877 42.75C25.8939 42.8346 25.8431 42.877 25.7246 42.877H25.4961C25.2591 42.877 25.0221 42.8854 24.7852 42.9023C24.5651 42.9193 24.3366 42.9277 24.0996 42.9277C23.778 42.9277 23.4479 42.8854 23.1094 42.8008C23.0247 42.8516 22.9316 42.877 22.8301 42.877C22.7624 42.9108 22.7116 42.9701 22.6777 43.0547C22.6439 43.1224 22.61 43.1901 22.5762 43.2578C22.5423 43.3086 22.4915 43.3594 22.4238 43.4102C22.373 43.444 22.2969 43.4525 22.1953 43.4355C22.1615 43.6387 22.0768 43.7995 21.9414 43.918C21.806 44.0365 21.7383 44.2142 21.7383 44.4512C21.5521 44.5527 21.3997 44.6797 21.2812 44.832C21.1628 44.9844 21.0443 45.1452 20.9258 45.3145C20.8073 45.4837 20.6803 45.6445 20.5449 45.7969C20.4264 45.9492 20.2741 46.0677 20.0879 46.1523C20.0033 46.2539 19.9779 46.4147 20.0117 46.6348C19.8255 46.7871 19.597 46.9225 19.3262 47.041C19.0553 47.1595 18.8014 47.2188 18.5645 47.2188C18.0736 47.2188 17.735 46.9564 17.5488 46.4316C17.5488 46.2624 17.5658 46.0846 17.5996 45.8984C17.6165 45.6953 17.6504 45.5091 17.7012 45.3398C17.752 45.1536 17.8281 44.9928 17.9297 44.8574C18.0312 44.7051 18.1751 44.5951 18.3613 44.5273C18.3613 44.375 18.3105 44.2734 18.209 44.2227C18.1074 44.1549 18.0651 44.0449 18.082 43.8926C18.5391 43.6725 18.9368 43.3848 19.2754 43.0293C19.6139 42.6738 19.9186 42.3014 20.1895 41.9121C20.4772 41.5059 20.765 41.0996 21.0527 40.6934C21.3405 40.2871 21.6621 39.9232 22.0176 39.6016V39.0684C22.5254 38.5267 22.8555 37.9173 23.0078 37.2402C23.194 37.2064 23.3125 37.1217 23.3633 36.9863C23.431 36.8509 23.4648 36.6901 23.4648 36.5039C23.5495 36.5039 23.6003 36.4701 23.6172 36.4023C23.651 36.3177 23.7272 36.2923 23.8457 36.3262C23.998 35.9199 24.1673 35.5475 24.3535 35.209C24.5397 34.8704 24.7259 34.5319 24.9121 34.1934C25.0983 33.8379 25.2591 33.474 25.3945 33.1016C25.5469 32.7292 25.6569 32.3145 25.7246 31.8574C25.9616 31.8405 26.0885 31.7305 26.1055 31.5273C26.1393 31.3073 26.1732 31.1126 26.207 30.9434C26.4609 30.7064 26.6471 30.4271 26.7656 30.1055C26.901 29.7839 27.0195 29.4538 27.1211 29.1152C27.2227 28.7598 27.3327 28.4128 27.4512 28.0742C27.5866 27.7188 27.7728 27.4056 28.0098 27.1348V27.0586C28.0098 26.974 27.9759 26.9232 27.9082 26.9062C27.8405 26.8724 27.8066 26.8132 27.8066 26.7285C27.8236 26.7116 27.832 26.6947 27.832 26.6777C28.0352 26.5931 28.1875 26.4577 28.2891 26.2715C28.3906 26.0684 28.543 25.9245 28.7461 25.8398C29.1016 26.1276 29.4147 26.3053 29.6855 26.373C29.9564 26.4238 30.3118 26.4661 30.752 26.5C30.972 26.737 31.0905 27.0247 31.1074 27.3633C31.1413 27.6849 31.2005 28.0065 31.2852 28.3281C31.4206 28.8698 31.5645 29.403 31.7168 29.9277C31.8861 30.4355 32.013 30.9603 32.0977 31.502C32.1484 31.8236 32.2415 32.1283 32.377 32.416C32.5124 32.7038 32.6055 33 32.6562 33.3047C32.6901 33.5417 32.6901 33.8125 32.6562 34.1172C32.6224 34.4049 32.6562 34.6589 32.7578 34.8789L32.9355 35.2852C33.0202 35.4714 33.0879 35.666 33.1387 35.8691C33.2064 36.0723 33.2656 36.2754 33.3164 36.4785C33.4518 36.9863 33.5703 37.5365 33.6719 38.1289C33.7904 38.7044 33.9681 39.2292 34.2051 39.7031C34.2897 39.8724 34.4167 39.9909 34.5859 40.0586C34.7721 40.1263 34.9753 40.1771 35.1953 40.2109C35.4154 40.2279 35.627 40.2363 35.8301 40.2363C36.0501 40.2194 36.2363 40.2109 36.3887 40.2109H36.6426C36.7441 40.2109 36.8457 40.2279 36.9473 40.2617C37.015 40.3971 37.0488 40.5156 37.0488 40.6172C37.0488 40.8203 36.9811 40.9811 36.8457 41.0996C36.7103 41.2181 36.6426 41.3535 36.6426 41.5059C36.6426 41.5905 36.6764 41.6836 36.7441 41.7852C36.6764 41.7682 36.5749 41.7598 36.4395 41.7598C36.0501 41.7598 35.6693 41.8275 35.2969 41.9629C35.4323 42.2507 35.61 42.4961 35.8301 42.6992C36.0671 42.8854 36.3125 43.0632 36.5664 43.2324C36.7357 43.097 36.9134 43.0293 37.0996 43.0293C37.3027 43.0293 37.4889 43.0801 37.6582 43.1816C37.8444 43.2663 38.0391 43.3086 38.2422 43.3086C38.3945 43.3086 38.5046 43.2832 38.5723 43.2324C38.7077 43.3848 38.8177 43.5456 38.9023 43.7148C38.987 43.8672 39.097 44.0111 39.2324 44.1465ZM31.2852 40.084C31.2513 39.7962 31.1921 39.5931 31.1074 39.4746C31.0397 39.3392 30.9805 39.1784 30.9297 38.9922C30.862 38.7552 30.8112 38.5013 30.7773 38.2305C30.7604 37.9596 30.7266 37.6973 30.6758 37.4434C30.5573 36.8678 30.4219 36.2923 30.2695 35.7168C30.1341 35.1413 29.9564 34.5827 29.7363 34.041C29.804 33.9395 29.8379 33.8464 29.8379 33.7617V33.6855C29.6855 33.5163 29.5755 33.3132 29.5078 33.0762C29.4401 32.8223 29.3724 32.5768 29.3047 32.3398C29.2539 32.0859 29.1777 31.8574 29.0762 31.6543C28.9915 31.4342 28.8477 31.2565 28.6445 31.1211C28.5938 31.2227 28.5684 31.3411 28.5684 31.4766C28.5684 31.5951 28.5768 31.7051 28.5938 31.8066C28.6276 31.9082 28.6445 32.0182 28.6445 32.1367C28.4753 32.2214 28.3483 32.3568 28.2637 32.543C28.196 32.7122 28.0775 32.8477 27.9082 32.9492C27.7728 33.4909 27.5781 34.0072 27.3242 34.498C27.0703 34.972 26.7995 35.446 26.5117 35.9199C26.2409 36.3939 25.9785 36.8763 25.7246 37.3672C25.4707 37.8411 25.2676 38.3405 25.1152 38.8652C24.8952 39.0176 24.7428 39.2122 24.6582 39.4492C24.5905 39.6862 24.5566 39.9232 24.5566 40.1602C24.709 40.2448 24.8783 40.2956 25.0645 40.3125C25.2676 40.3125 25.4622 40.3125 25.6484 40.3125C25.8346 40.3125 26.0124 40.3294 26.1816 40.3633C26.3509 40.3971 26.5033 40.4818 26.6387 40.6172C26.8587 40.5495 27.0957 40.5072 27.3496 40.4902C27.6204 40.4564 27.8405 40.3802 28.0098 40.2617C28.3483 40.3802 28.7122 40.4395 29.1016 40.4395C29.3047 40.4395 29.4993 40.4225 29.6855 40.3887C29.8887 40.3548 30.0833 40.3125 30.2695 40.2617C30.4219 40.2956 30.5404 40.3548 30.625 40.4395C30.7096 40.5072 30.8366 40.5326 31.0059 40.5156C31.0905 40.4479 31.1413 40.3802 31.1582 40.3125C31.1751 40.2279 31.2174 40.1517 31.2852 40.084ZM55.7363 29.3184C55.7025 29.5215 55.6517 29.6992 55.584 29.8516C55.5332 29.987 55.5247 30.1732 55.5586 30.4102C55.3893 30.4271 55.2539 30.4863 55.1523 30.5879C55.0677 30.6725 54.9915 30.7741 54.9238 30.8926C54.873 31.0111 54.8138 31.138 54.7461 31.2734C54.6953 31.3919 54.6276 31.502 54.543 31.6035C54.6784 32.2129 54.7546 32.8307 54.7715 33.457C54.7884 34.0833 54.8307 34.7012 54.8984 35.3105C54.9831 36.0892 55.11 36.8594 55.2793 37.6211C55.4655 38.3659 55.5586 39.1276 55.5586 39.9062C55.5586 40.1432 55.5501 40.3633 55.5332 40.5664C55.5332 40.7695 55.5332 40.9811 55.5332 41.2012C55.5332 41.3366 55.5332 41.4805 55.5332 41.6328C55.5501 41.7682 55.5586 41.9036 55.5586 42.0391C55.5586 42.5299 55.4909 43.0208 55.3555 43.5117C55.237 44.0026 55.1439 44.4935 55.0762 44.9844C54.873 45.1706 54.6953 45.3737 54.543 45.5938C54.4076 45.8138 54.2637 46.0169 54.1113 46.2031C53.959 46.3893 53.7812 46.5501 53.5781 46.6855C53.375 46.8379 53.1211 46.9395 52.8164 46.9902C52.7656 47.1595 52.6641 47.2865 52.5117 47.3711C52.3763 47.4557 52.2578 47.5742 52.1562 47.7266H52.1055C51.6823 47.7266 51.3184 47.6673 51.0137 47.5488C50.709 47.4303 50.4212 47.2949 50.1504 47.1426C49.8965 46.9902 49.6341 46.8294 49.3633 46.6602C49.0924 46.4909 48.7793 46.3555 48.4238 46.2539C47.9499 45.8646 47.5182 45.4414 47.1289 44.9844C46.7396 44.5104 46.2995 44.0872 45.8086 43.7148C45.6901 43.3763 45.5293 43.097 45.3262 42.877C45.14 42.6569 44.9538 42.403 44.7676 42.1152C44.6829 41.9967 44.6152 41.8867 44.5645 41.7852C44.5306 41.6836 44.4798 41.5651 44.4121 41.4297C44.3613 41.2943 44.2767 41.2012 44.1582 41.1504C44.0566 41.0996 43.9635 41.0404 43.8789 40.9727C43.7435 40.4479 43.5488 39.9655 43.2949 39.5254C43.041 39.0853 42.7448 38.6621 42.4062 38.2559C42.3047 38.4421 42.2201 38.6452 42.1523 38.8652C42.1016 39.0684 42.0508 39.2799 42 39.5C41.9492 39.7031 41.8815 39.9147 41.7969 40.1348C41.7292 40.3379 41.6361 40.5241 41.5176 40.6934V40.7695C41.5176 40.8542 41.5514 40.9049 41.6191 40.9219C41.6868 40.9388 41.7207 40.9896 41.7207 41.0742C41.7207 41.0911 41.7122 41.1081 41.6953 41.125C41.6953 41.1419 41.6953 41.1589 41.6953 41.1758C41.6107 41.2435 41.543 41.3281 41.4922 41.4297C41.4583 41.5312 41.3737 41.5905 41.2383 41.6074C41.2552 41.6921 41.2637 41.7767 41.2637 41.8613V42.0898C41.2637 42.5807 41.2044 43.0716 41.0859 43.5625C40.9844 44.0534 40.9336 44.5527 40.9336 45.0605V45.3906C40.9336 45.5091 40.9421 45.6191 40.959 45.7207C40.9928 45.8223 41.0436 45.9238 41.1113 46.0254C41.179 46.127 41.2129 46.2201 41.2129 46.3047C41.2129 46.4232 41.1621 46.5332 41.0605 46.6348C41.179 46.7194 41.3145 46.8125 41.4668 46.9141C41.6191 47.0156 41.7546 47.1257 41.873 47.2441C42.0085 47.3796 42.1185 47.515 42.2031 47.6504C42.2878 47.8027 42.3301 47.9635 42.3301 48.1328C42.3301 48.4206 42.237 48.6237 42.0508 48.7422C41.8646 48.8607 41.6361 48.9538 41.3652 49.0215C41.1113 49.0892 40.8405 49.1484 40.5527 49.1992C40.2819 49.2669 40.0534 49.377 39.8672 49.5293H39.791C39.5879 49.5293 39.4355 49.4701 39.334 49.3516C39.2324 49.2331 39.0801 49.1738 38.877 49.1738C38.5553 48.6491 38.3353 48.0566 38.2168 47.3965C38.0983 46.7533 38.0391 46.1354 38.0391 45.543C38.0391 44.8151 38.1068 44.0872 38.2422 43.3594C38.3607 42.6315 38.513 41.9121 38.6992 41.2012C38.8685 40.4902 39.0547 39.7878 39.2578 39.0938C39.4779 38.3828 39.681 37.6719 39.8672 36.9609L39.8926 36.8848C39.8926 36.8001 39.8672 36.7409 39.8164 36.707C39.7826 36.6732 39.7656 36.6224 39.7656 36.5547C39.7656 36.5208 39.7741 36.5039 39.791 36.5039C39.8418 36.3346 39.8926 36.1738 39.9434 36.0215C40.0111 35.8691 40.0618 35.6999 40.0957 35.5137C40.1973 35.0397 40.265 34.5573 40.2988 34.0664C40.3496 33.5586 40.375 33.0592 40.375 32.5684C40.3919 32.0775 40.4089 31.5866 40.4258 31.0957C40.4596 30.5879 40.5189 30.0885 40.6035 29.5977C40.7389 29.4622 40.8659 29.3184 40.9844 29.166C41.1029 29.0137 41.2552 28.8783 41.4414 28.7598C41.7799 28.7767 42.1185 28.8275 42.457 28.9121C42.7956 28.9967 43.1172 29.1322 43.4219 29.3184C43.625 30.0462 43.7604 30.7741 43.8281 31.502C43.9128 32.2298 44.0482 32.9577 44.2344 33.6855V33.7617C44.2344 33.8464 44.2767 33.8887 44.3613 33.8887C44.4629 33.8717 44.5391 33.8971 44.5898 33.9648C44.556 34.0156 44.5306 34.0749 44.5137 34.1426C44.5137 34.2103 44.5137 34.278 44.5137 34.3457V34.7773C44.5475 34.9128 44.5898 35.0566 44.6406 35.209C44.6914 35.3613 44.8014 35.4544 44.9707 35.4883C45.0553 36.0299 45.1823 36.5293 45.3516 36.9863C45.5208 37.4434 45.7155 37.8835 45.9355 38.3066C46.1556 38.7298 46.3926 39.153 46.6465 39.5762C46.9004 39.9824 47.1628 40.4141 47.4336 40.8711C47.8568 41.1927 48.2207 41.5651 48.5254 41.9883C48.8301 42.3945 49.1348 42.7923 49.4395 43.1816C49.7611 43.554 50.1165 43.8841 50.5059 44.1719C50.9121 44.4596 51.4368 44.6374 52.0801 44.7051C52.1647 44.6374 52.224 44.5443 52.2578 44.4258L52.3848 44.0703C52.4355 43.9518 52.4863 43.8503 52.5371 43.7656C52.6048 43.6641 52.6979 43.5879 52.8164 43.5371C52.8503 43.0632 52.8841 42.5807 52.918 42.0898C52.9688 41.599 53.0788 41.1335 53.248 40.6934C53.1634 40.541 53.1211 40.3548 53.1211 40.1348C53.1211 39.9655 53.1296 39.8047 53.1465 39.6523C53.1803 39.5 53.1973 39.3477 53.1973 39.1953C53.1973 38.8737 53.1296 38.6113 52.9941 38.4082C52.9941 38.2897 53.0026 38.1712 53.0195 38.0527C53.0365 37.9173 53.0872 37.7904 53.1719 37.6719C53.0365 37.3333 52.9264 36.9779 52.8418 36.6055C52.7741 36.2331 52.7402 35.8522 52.7402 35.4629C52.7402 35.2428 52.7656 35.0143 52.8164 34.7773C52.7148 34.5234 52.6471 34.2272 52.6133 33.8887L52.5117 32.8477C52.4779 32.4922 52.4271 32.1621 52.3594 31.8574C52.2917 31.5527 52.1647 31.3073 51.9785 31.1211C52.0801 30.9688 52.1309 30.791 52.1309 30.5879C52.1309 30.2493 52.0801 29.9277 51.9785 29.623C51.877 29.3184 51.8262 28.9967 51.8262 28.6582C51.8262 28.4212 51.877 28.1842 51.9785 27.9473C52.3509 27.9642 52.7148 28.0065 53.0703 28.0742C53.4427 28.125 53.8066 28.1504 54.1621 28.1504C54.2637 28.2858 54.3822 28.3958 54.5176 28.4805C54.653 28.5651 54.7969 28.6497 54.9492 28.7344C55.1016 28.8021 55.2454 28.8783 55.3809 28.9629C55.5332 29.0475 55.6517 29.166 55.7363 29.3184ZM80.1367 29.6738C80.069 29.8939 79.959 30.097 79.8066 30.2832L79.375 30.8164C79.2396 30.9857 79.1211 31.1719 79.0195 31.375C78.9349 31.5612 78.9095 31.7812 78.9434 32.0352C78.9095 32.0352 78.8672 32.0352 78.8164 32.0352C78.7656 32.0182 78.7233 32.0098 78.6895 32.0098C78.4186 32.0098 78.207 32.0775 78.0547 32.2129C77.9193 32.3314 77.7331 32.4329 77.4961 32.5176C77.4622 32.416 77.4199 32.3229 77.3691 32.2383C77.3184 32.1367 77.2422 32.069 77.1406 32.0352C76.7344 32.1198 76.3281 32.1875 75.9219 32.2383C75.5156 32.2721 75.1094 32.3229 74.7031 32.3906C74.5169 32.4245 74.3307 32.4753 74.1445 32.543C73.9583 32.5938 73.7637 32.6445 73.5605 32.6953C73.459 32.7292 73.349 32.7461 73.2305 32.7461C73.112 32.7292 72.9935 32.7292 72.875 32.7461C72.4688 32.763 72.0286 32.7969 71.5547 32.8477C71.0807 32.8815 70.6576 33.0085 70.2852 33.2285C70.1159 33.1947 69.9382 33.1693 69.752 33.1523C69.5658 33.1354 69.3796 33.127 69.1934 33.127C68.7871 33.127 68.3385 33.1693 67.8477 33.2539C67.3737 33.3216 66.9505 33.4655 66.5781 33.6855C66.4935 33.6517 66.4004 33.6263 66.2988 33.6094C66.2142 33.5924 66.1126 33.584 65.9941 33.584C65.9603 33.584 65.9349 33.5924 65.918 33.6094C65.901 33.6094 65.8757 33.6094 65.8418 33.6094C65.8249 33.7617 65.8418 33.9141 65.8926 34.0664C65.9603 34.2018 66.0703 34.3118 66.2227 34.3965C66.1549 34.5827 66.1211 34.7858 66.1211 35.0059C66.1211 35.2936 66.138 35.5814 66.1719 35.8691C66.2227 36.1569 66.248 36.4447 66.248 36.7324C66.248 37.054 66.2057 37.3079 66.1211 37.4941C66.2904 38.002 66.375 38.5436 66.375 39.1191C66.375 39.3223 66.3581 39.5254 66.3242 39.7285C66.3073 39.9147 66.2988 40.1178 66.2988 40.3379C66.2988 40.5241 66.3665 40.6764 66.502 40.7949C66.6374 40.8965 66.7051 41.0404 66.7051 41.2266C66.7051 41.2943 66.6882 41.362 66.6543 41.4297C66.8913 41.3789 67.1198 41.3112 67.3398 41.2266C67.5599 41.125 67.7884 41.0742 68.0254 41.0742C68.1608 41.0742 68.2878 41.0996 68.4062 41.1504C68.5417 41.2012 68.6602 41.2689 68.7617 41.3535C68.7448 41.4382 68.7279 41.5312 68.7109 41.6328C68.7109 41.7344 68.7109 41.8359 68.7109 41.9375C68.7109 42.1237 68.7109 42.3014 68.7109 42.4707C68.7279 42.623 68.7448 42.7923 68.7617 42.9785C68.6263 43.2155 68.4655 43.4271 68.2793 43.6133C68.11 43.7995 67.9915 44.0365 67.9238 44.3242C67.6699 44.3242 67.4414 44.3835 67.2383 44.502C67.0521 44.6035 66.8743 44.722 66.7051 44.8574C66.5358 44.9759 66.3665 45.0944 66.1973 45.2129C66.028 45.3145 65.8418 45.3652 65.6387 45.3652C65.3848 45.3652 65.207 45.3314 65.1055 45.2637C65.0039 45.179 64.9277 45.0944 64.877 45.0098C64.8262 44.9251 64.7754 44.849 64.7246 44.7812C64.6908 44.7135 64.6061 44.6882 64.4707 44.7051C64.4368 44.485 64.3691 44.2819 64.2676 44.0957C64.166 43.8926 64.056 43.6979 63.9375 43.5117C63.8359 43.3255 63.7259 43.1393 63.6074 42.9531C63.5059 42.75 63.4297 42.5469 63.3789 42.3438C63.2773 41.9036 63.235 41.4466 63.252 40.9727C63.2689 40.4987 63.1927 40.0417 63.0234 39.6016C63.0573 39.3646 63.0827 39.1276 63.0996 38.8906C63.1165 38.6367 63.125 38.3913 63.125 38.1543C63.125 37.6803 63.1081 37.2148 63.0742 36.7578C63.0573 36.2839 63.0404 35.8014 63.0234 35.3105C62.9049 35.1582 62.8288 34.9889 62.7949 34.8027C62.778 34.5996 62.7611 34.4049 62.7441 34.2188C62.6934 34.168 62.6341 34.1172 62.5664 34.0664C62.5156 34.0156 62.4818 33.9479 62.4648 33.8633C62.3294 33.8294 62.2279 33.8125 62.1602 33.8125C61.9232 33.8125 61.7201 33.8717 61.5508 33.9902C61.3984 34.0918 61.2546 34.1426 61.1191 34.1426C60.9837 34.1426 60.8568 34.1257 60.7383 34.0918C60.6198 34.0579 60.5013 34.041 60.3828 34.041C60.2812 34.041 60.222 34.0664 60.2051 34.1172C60.2051 34.151 60.1712 34.1849 60.1035 34.2188C60.0527 34.2526 59.9342 34.2865 59.748 34.3203C59.5618 34.3542 59.3503 34.388 59.1133 34.4219C58.8932 34.4388 58.6732 34.4557 58.4531 34.4727C58.25 34.4896 58.1146 34.498 58.0469 34.498C57.776 34.498 57.5729 34.4473 57.4375 34.3457C57.2852 34.2272 57.1074 34.1003 56.9043 33.9648C56.9382 33.8633 56.9551 33.7956 56.9551 33.7617C56.9551 33.5924 56.9043 33.457 56.8027 33.3555C56.7012 33.237 56.6504 33.1354 56.6504 33.0508C56.6504 32.8646 56.7266 32.7207 56.8789 32.6191C57.0143 32.5176 57.0905 32.3568 57.1074 32.1367C57.4967 31.9674 57.8945 31.8405 58.3008 31.7559C58.707 31.6712 59.1217 31.6035 59.5449 31.5527C59.9681 31.502 60.3828 31.4427 60.7891 31.375C61.2122 31.3073 61.627 31.1973 62.0332 31.0449C62.1517 31.0618 62.2617 31.0788 62.3633 31.0957C62.4818 31.0957 62.6003 31.0957 62.7188 31.0957C63.2266 31.0957 63.7259 31.0449 64.2168 30.9434C64.7246 30.8249 65.2409 30.7656 65.7656 30.7656C65.901 30.7656 66.0365 30.7741 66.1719 30.791C66.3073 30.8079 66.4427 30.8333 66.5781 30.8672C67.2552 30.7656 67.9238 30.6556 68.584 30.5371C69.2611 30.4186 69.9551 30.3171 70.666 30.2324C71.0046 30.1986 71.3346 30.1732 71.6562 30.1562C71.9948 30.1224 72.3333 30.0801 72.6719 30.0293C72.7904 30.0124 72.875 29.987 72.9258 29.9531C72.9935 29.9023 73.0273 29.8092 73.0273 29.6738C73.1797 29.7415 73.349 29.7754 73.5352 29.7754C73.8229 29.7754 74.1022 29.7246 74.373 29.623C74.6439 29.5215 74.9232 29.4707 75.2109 29.4707C75.2786 29.4707 75.3379 29.4792 75.3887 29.4961C75.4395 29.4961 75.4902 29.4961 75.541 29.4961C75.6595 29.4961 75.7188 29.4453 75.7188 29.3438C75.7357 29.2253 75.8203 29.1491 75.9727 29.1152C76.0911 29.0814 76.2604 29.056 76.4805 29.0391C76.7005 29.0221 76.929 29.0052 77.166 28.9883C77.4199 28.9544 77.6484 28.9206 77.8516 28.8867C78.0716 28.8359 78.2324 28.7682 78.334 28.6836L78.5117 28.4043C78.8164 28.4212 79.0365 28.5566 79.1719 28.8105C79.3242 29.0475 79.4089 29.3099 79.4258 29.5977C79.4935 29.6654 79.5866 29.6992 79.7051 29.6992C79.8405 29.6823 79.959 29.6738 80.0605 29.6738H80.1367ZM94.6855 44.1465C94.6348 44.3835 94.5247 44.5781 94.3555 44.7305C94.2031 44.8659 94.0169 44.9759 93.7969 45.0605C93.5768 45.1452 93.3483 45.2044 93.1113 45.2383C92.8913 45.2552 92.6882 45.2637 92.502 45.2637C92.4173 45.2637 92.3327 45.2637 92.248 45.2637C92.1803 45.2467 92.1042 45.2383 92.0195 45.2383C91.9349 45.2383 91.8926 45.2806 91.8926 45.3652C91.8926 45.4499 91.8503 45.5091 91.7656 45.543C91.681 45.5091 91.5964 45.4837 91.5117 45.4668C91.4271 45.4499 91.3424 45.4414 91.2578 45.4414C91.1393 45.4414 91.0208 45.4499 90.9023 45.4668C90.8008 45.4837 90.6992 45.4922 90.5977 45.4922C90.4622 45.4922 90.3607 45.4753 90.293 45.4414C90.2422 45.4076 90.1914 45.3737 90.1406 45.3398C90.1068 45.2891 90.0645 45.2383 90.0137 45.1875C89.9798 45.1367 89.9206 45.0944 89.8359 45.0605C89.7174 45.0098 89.6159 45.0013 89.5312 45.0352C89.4635 45.069 89.3535 45.0182 89.2012 44.8828C88.998 44.7135 88.8203 44.5104 88.668 44.2734C88.5326 44.0195 88.3971 43.7572 88.2617 43.4863C88.1263 43.2155 87.9824 42.9447 87.8301 42.6738C87.6777 42.403 87.5 42.166 87.2969 41.9629H87.0938C86.7891 41.9629 86.5775 42.0898 86.459 42.3438C86.3743 42.293 86.2897 42.2337 86.2051 42.166C86.1204 42.0814 86.0273 42.0137 85.9258 41.9629C85.5365 42.0814 85.1302 42.1829 84.707 42.2676C84.2839 42.3522 83.8607 42.3945 83.4375 42.3945H83.082C82.9805 42.3945 82.8704 42.3776 82.752 42.3438C82.5827 42.4115 82.4303 42.4961 82.2949 42.5977C82.1595 42.6823 82.0072 42.7246 81.8379 42.7246C81.7363 42.7246 81.6178 42.6908 81.4824 42.623C81.3809 42.623 81.3301 42.6654 81.3301 42.75C81.347 42.8346 81.2962 42.877 81.1777 42.877H80.9492C80.7122 42.877 80.4753 42.8854 80.2383 42.9023C80.0182 42.9193 79.7897 42.9277 79.5527 42.9277C79.2311 42.9277 78.901 42.8854 78.5625 42.8008C78.4779 42.8516 78.3848 42.877 78.2832 42.877C78.2155 42.9108 78.1647 42.9701 78.1309 43.0547C78.097 43.1224 78.0632 43.1901 78.0293 43.2578C77.9954 43.3086 77.9447 43.3594 77.877 43.4102C77.8262 43.444 77.75 43.4525 77.6484 43.4355C77.6146 43.6387 77.5299 43.7995 77.3945 43.918C77.2591 44.0365 77.1914 44.2142 77.1914 44.4512C77.0052 44.5527 76.8529 44.6797 76.7344 44.832C76.6159 44.9844 76.4974 45.1452 76.3789 45.3145C76.2604 45.4837 76.1335 45.6445 75.998 45.7969C75.8796 45.9492 75.7272 46.0677 75.541 46.1523C75.4564 46.2539 75.431 46.4147 75.4648 46.6348C75.2786 46.7871 75.0501 46.9225 74.7793 47.041C74.5085 47.1595 74.2546 47.2188 74.0176 47.2188C73.5267 47.2188 73.1882 46.9564 73.002 46.4316C73.002 46.2624 73.0189 46.0846 73.0527 45.8984C73.0697 45.6953 73.1035 45.5091 73.1543 45.3398C73.2051 45.1536 73.2812 44.9928 73.3828 44.8574C73.4844 44.7051 73.6283 44.5951 73.8145 44.5273C73.8145 44.375 73.7637 44.2734 73.6621 44.2227C73.5605 44.1549 73.5182 44.0449 73.5352 43.8926C73.9922 43.6725 74.39 43.3848 74.7285 43.0293C75.0671 42.6738 75.3717 42.3014 75.6426 41.9121C75.9303 41.5059 76.2181 41.0996 76.5059 40.6934C76.7936 40.2871 77.1152 39.9232 77.4707 39.6016V39.0684C77.9785 38.5267 78.3086 37.9173 78.4609 37.2402C78.6471 37.2064 78.7656 37.1217 78.8164 36.9863C78.8841 36.8509 78.918 36.6901 78.918 36.5039C79.0026 36.5039 79.0534 36.4701 79.0703 36.4023C79.1042 36.3177 79.1803 36.2923 79.2988 36.3262C79.4512 35.9199 79.6204 35.5475 79.8066 35.209C79.9928 34.8704 80.179 34.5319 80.3652 34.1934C80.5514 33.8379 80.7122 33.474 80.8477 33.1016C81 32.7292 81.11 32.3145 81.1777 31.8574C81.4147 31.8405 81.5417 31.7305 81.5586 31.5273C81.5924 31.3073 81.6263 31.1126 81.6602 30.9434C81.9141 30.7064 82.1003 30.4271 82.2188 30.1055C82.3542 29.7839 82.4727 29.4538 82.5742 29.1152C82.6758 28.7598 82.7858 28.4128 82.9043 28.0742C83.0397 27.7188 83.2259 27.4056 83.4629 27.1348V27.0586C83.4629 26.974 83.429 26.9232 83.3613 26.9062C83.2936 26.8724 83.2598 26.8132 83.2598 26.7285C83.2767 26.7116 83.2852 26.6947 83.2852 26.6777C83.4883 26.5931 83.6406 26.4577 83.7422 26.2715C83.8438 26.0684 83.9961 25.9245 84.1992 25.8398C84.5547 26.1276 84.8678 26.3053 85.1387 26.373C85.4095 26.4238 85.765 26.4661 86.2051 26.5C86.4251 26.737 86.5436 27.0247 86.5605 27.3633C86.5944 27.6849 86.6536 28.0065 86.7383 28.3281C86.8737 28.8698 87.0176 29.403 87.1699 29.9277C87.3392 30.4355 87.4661 30.9603 87.5508 31.502C87.6016 31.8236 87.6947 32.1283 87.8301 32.416C87.9655 32.7038 88.0586 33 88.1094 33.3047C88.1432 33.5417 88.1432 33.8125 88.1094 34.1172C88.0755 34.4049 88.1094 34.6589 88.2109 34.8789L88.3887 35.2852C88.4733 35.4714 88.541 35.666 88.5918 35.8691C88.6595 36.0723 88.7188 36.2754 88.7695 36.4785C88.9049 36.9863 89.0234 37.5365 89.125 38.1289C89.2435 38.7044 89.4212 39.2292 89.6582 39.7031C89.7428 39.8724 89.8698 39.9909 90.0391 40.0586C90.2253 40.1263 90.4284 40.1771 90.6484 40.2109C90.8685 40.2279 91.0801 40.2363 91.2832 40.2363C91.5033 40.2194 91.6895 40.2109 91.8418 40.2109H92.0957C92.1973 40.2109 92.2988 40.2279 92.4004 40.2617C92.4681 40.3971 92.502 40.5156 92.502 40.6172C92.502 40.8203 92.4342 40.9811 92.2988 41.0996C92.1634 41.2181 92.0957 41.3535 92.0957 41.5059C92.0957 41.5905 92.1296 41.6836 92.1973 41.7852C92.1296 41.7682 92.028 41.7598 91.8926 41.7598C91.5033 41.7598 91.1224 41.8275 90.75 41.9629C90.8854 42.2507 91.0632 42.4961 91.2832 42.6992C91.5202 42.8854 91.7656 43.0632 92.0195 43.2324C92.1888 43.097 92.3665 43.0293 92.5527 43.0293C92.7559 43.0293 92.9421 43.0801 93.1113 43.1816C93.2975 43.2663 93.4922 43.3086 93.6953 43.3086C93.8477 43.3086 93.9577 43.2832 94.0254 43.2324C94.1608 43.3848 94.2708 43.5456 94.3555 43.7148C94.4401 43.8672 94.5501 44.0111 94.6855 44.1465ZM86.7383 40.084C86.7044 39.7962 86.6452 39.5931 86.5605 39.4746C86.4928 39.3392 86.4336 39.1784 86.3828 38.9922C86.3151 38.7552 86.2643 38.5013 86.2305 38.2305C86.2135 37.9596 86.1797 37.6973 86.1289 37.4434C86.0104 36.8678 85.875 36.2923 85.7227 35.7168C85.5872 35.1413 85.4095 34.5827 85.1895 34.041C85.2572 33.9395 85.291 33.8464 85.291 33.7617V33.6855C85.1387 33.5163 85.0286 33.3132 84.9609 33.0762C84.8932 32.8223 84.8255 32.5768 84.7578 32.3398C84.707 32.0859 84.6309 31.8574 84.5293 31.6543C84.4447 31.4342 84.3008 31.2565 84.0977 31.1211C84.0469 31.2227 84.0215 31.3411 84.0215 31.4766C84.0215 31.5951 84.0299 31.7051 84.0469 31.8066C84.0807 31.9082 84.0977 32.0182 84.0977 32.1367C83.9284 32.2214 83.8014 32.3568 83.7168 32.543C83.6491 32.7122 83.5306 32.8477 83.3613 32.9492C83.2259 33.4909 83.0312 34.0072 82.7773 34.498C82.5234 34.972 82.2526 35.446 81.9648 35.9199C81.694 36.3939 81.4316 36.8763 81.1777 37.3672C80.9238 37.8411 80.7207 38.3405 80.5684 38.8652C80.3483 39.0176 80.196 39.2122 80.1113 39.4492C80.0436 39.6862 80.0098 39.9232 80.0098 40.1602C80.1621 40.2448 80.3314 40.2956 80.5176 40.3125C80.7207 40.3125 80.9154 40.3125 81.1016 40.3125C81.2878 40.3125 81.4655 40.3294 81.6348 40.3633C81.804 40.3971 81.9564 40.4818 82.0918 40.6172C82.3118 40.5495 82.5488 40.5072 82.8027 40.4902C83.0736 40.4564 83.2936 40.3802 83.4629 40.2617C83.8014 40.3802 84.1654 40.4395 84.5547 40.4395C84.7578 40.4395 84.9525 40.4225 85.1387 40.3887C85.3418 40.3548 85.5365 40.3125 85.7227 40.2617C85.875 40.2956 85.9935 40.3548 86.0781 40.4395C86.1628 40.5072 86.2897 40.5326 86.459 40.5156C86.5436 40.4479 86.5944 40.3802 86.6113 40.3125C86.6283 40.2279 86.6706 40.1517 86.7383 40.084ZM107.914 42.8008C107.914 43.0885 107.838 43.3424 107.686 43.5625C107.55 43.7656 107.499 44.0195 107.533 44.3242C107.296 44.4596 107.102 44.6374 106.949 44.8574C106.797 45.0775 106.653 45.306 106.518 45.543C105.4 46.2708 104.199 46.8548 102.912 47.2949C101.643 47.752 100.331 47.9805 98.9766 47.9805C98.8919 47.9805 98.8158 47.9382 98.748 47.8535C98.6803 47.7858 98.6126 47.7096 98.5449 47.625C98.4772 47.5404 98.401 47.4557 98.3164 47.3711C98.2487 47.3034 98.1641 47.2695 98.0625 47.2695C97.944 47.2695 97.8509 47.2949 97.7832 47.3457C97.7832 47.3118 97.7832 47.278 97.7832 47.2441C97.8001 47.2272 97.8086 47.2018 97.8086 47.168C97.8086 46.9648 97.7832 46.7533 97.7324 46.5332C97.6816 46.3301 97.6562 46.127 97.6562 45.9238C97.6562 45.6868 97.6986 45.4922 97.7832 45.3398H98.0879C98.2572 45.3398 98.418 45.3314 98.5703 45.3145C98.7396 45.2806 98.9173 45.2637 99.1035 45.2637C99.2897 45.2637 99.459 45.3145 99.6113 45.416C100.542 45.3822 101.423 45.2129 102.252 44.9082C103.098 44.5866 103.953 44.2734 104.816 43.9688C104.952 43.7826 105.028 43.5794 105.045 43.3594C105.079 43.1224 105.146 42.9023 105.248 42.6992C104.808 42.3268 104.359 42.0391 103.902 41.8359C103.462 41.6159 102.946 41.5397 102.354 41.6074C101.998 41.3874 101.617 41.2604 101.211 41.2266C100.822 41.1927 100.424 41.1419 100.018 41.0742C99.916 41.0573 99.806 41.0404 99.6875 41.0234C99.5859 40.9896 99.4759 40.9727 99.3574 40.9727C99.2728 40.9727 99.1882 40.998 99.1035 41.0488C99.0358 41.0827 99.0189 41.1419 99.0527 41.2266C98.9681 41.0911 98.8496 41.015 98.6973 40.998C98.5618 40.9642 98.4434 40.8965 98.3418 40.7949C97.8001 40.7611 97.3262 40.668 96.9199 40.5156C96.5137 40.3464 96.0651 40.1602 95.5742 39.957C95.4388 39.9062 95.3034 39.8724 95.168 39.8555C95.0495 39.8216 94.931 39.7708 94.8125 39.7031C94.5078 39.5508 94.2624 39.3477 94.0762 39.0938C93.89 38.8398 93.7461 38.5605 93.6445 38.2559C93.526 37.9342 93.4414 37.6042 93.3906 37.2656C93.3398 36.9271 93.2891 36.6139 93.2383 36.3262C93.3906 36.0553 93.5345 35.776 93.6699 35.4883C93.7884 35.2005 93.89 34.8958 93.9746 34.5742C94.0762 34.5234 94.1777 34.4811 94.2793 34.4473C94.3809 34.4134 94.4909 34.3711 94.6094 34.3203C94.5924 34.2865 94.584 34.2441 94.584 34.1934C94.584 34.1087 94.6094 34.0241 94.6602 33.9395C94.7279 33.8548 94.7448 33.7702 94.7109 33.6855C95.0833 33.347 95.4388 33 95.7773 32.6445C96.1328 32.2721 96.4375 31.8659 96.6914 31.4258C96.9453 31.3411 97.1484 31.2142 97.3008 31.0449C97.4531 30.8757 97.6055 30.7064 97.7578 30.5371C97.9102 30.3509 98.0794 30.1901 98.2656 30.0547C98.4518 29.9023 98.6888 29.8092 98.9766 29.7754C99.0443 29.6569 99.1374 29.5638 99.2559 29.4961C99.3743 29.4115 99.4928 29.3353 99.6113 29.2676C99.7298 29.1999 99.8398 29.1237 99.9414 29.0391C100.043 28.9544 100.119 28.8359 100.17 28.6836C100.441 28.6836 100.686 28.6328 100.906 28.5312C101.143 28.4297 101.372 28.3197 101.592 28.2012C101.812 28.0827 102.032 27.9727 102.252 27.8711C102.489 27.7695 102.743 27.7188 103.014 27.7188C103.081 27.7188 103.149 27.7272 103.217 27.7441C103.285 27.7441 103.361 27.7526 103.445 27.7695C103.564 27.888 103.64 28.0319 103.674 28.2012C103.725 28.3535 103.758 28.5228 103.775 28.709C103.792 28.8952 103.801 29.0814 103.801 29.2676C103.818 29.4538 103.852 29.623 103.902 29.7754C103.75 30.0632 103.581 30.3509 103.395 30.6387C103.225 30.9264 102.997 31.1465 102.709 31.2988H102.658C102.54 31.3158 102.43 31.2904 102.328 31.2227C102.227 31.1549 102.108 31.1211 101.973 31.1211C101.888 31.1211 101.82 31.1465 101.77 31.1973L101.643 31.3242C101.609 31.3581 101.558 31.3919 101.49 31.4258C101.439 31.4596 101.363 31.4596 101.262 31.4258C101.025 31.5104 100.932 31.6543 100.982 31.8574C100.661 31.8913 100.39 31.9928 100.17 32.1621C99.9499 32.3145 99.7467 32.4922 99.5605 32.6953C99.3743 32.8815 99.1882 33.0592 99.002 33.2285C98.8158 33.3809 98.5957 33.4655 98.3418 33.4824C98.054 33.9902 97.6986 34.4388 97.2754 34.8281C96.8691 35.2174 96.5306 35.6576 96.2598 36.1484C96.3105 36.2839 96.3444 36.4277 96.3613 36.5801C96.3783 36.7324 96.4036 36.8932 96.4375 37.0625C96.5898 37.2656 96.7676 37.4434 96.9707 37.5957C97.1908 37.748 97.4023 37.9004 97.6055 38.0527H97.6816C98.0202 38.0527 98.3333 38.1204 98.6211 38.2559C98.9089 38.3743 99.2135 38.4336 99.5352 38.4336C99.7044 38.4336 99.8483 38.3997 99.9668 38.332C100.407 38.4336 100.839 38.5182 101.262 38.5859C101.702 38.6536 102.142 38.7044 102.582 38.7383C102.802 38.7721 103.022 38.7891 103.242 38.7891C103.479 38.7891 103.699 38.8145 103.902 38.8652C104.089 38.916 104.275 38.9837 104.461 39.0684C104.647 39.1361 104.833 39.2122 105.02 39.2969C105.409 39.4661 105.773 39.6523 106.111 39.8555C106.467 40.0586 106.78 40.304 107.051 40.5918C107.322 40.8626 107.533 41.1842 107.686 41.5566C107.838 41.9121 107.914 42.3268 107.914 42.8008ZM122.336 28.5312C122.336 28.6836 122.268 28.8105 122.133 28.9121C122.014 29.0137 121.955 29.0898 121.955 29.1406C121.955 29.2422 121.972 29.3184 122.006 29.3691C122.04 29.403 122.057 29.4453 122.057 29.4961V29.623C121.887 29.7923 121.76 29.9785 121.676 30.1816C121.591 30.3678 121.523 30.571 121.473 30.791C121.422 30.9941 121.371 31.2057 121.32 31.4258C121.286 31.6458 121.236 31.8574 121.168 32.0605C121.083 32.2637 120.973 32.4414 120.838 32.5938C120.702 32.7292 120.592 32.89 120.508 33.0762C120.372 33.3809 120.271 33.694 120.203 34.0156C120.135 34.3372 119.992 34.6335 119.771 34.9043V35.0312C119.755 35.1497 119.788 35.2513 119.873 35.3359C119.551 35.7591 119.298 36.2669 119.111 36.8594C118.925 37.4349 118.773 38.0443 118.654 38.6875C118.536 39.3138 118.434 39.9486 118.35 40.5918C118.265 41.2181 118.163 41.7852 118.045 42.293C118.13 42.6654 118.257 43.0208 118.426 43.3594C118.612 43.681 118.79 44.0195 118.959 44.375C119.298 44.4596 119.619 44.5781 119.924 44.7305C120.245 44.8828 120.474 45.1283 120.609 45.4668C120.576 45.8053 120.465 46.0677 120.279 46.2539C120.093 46.4401 119.865 46.6348 119.594 46.8379C119.408 46.7702 119.255 46.7109 119.137 46.6602C119.018 46.6263 118.84 46.6263 118.604 46.6602C118.282 46.4062 117.977 46.2031 117.689 46.0508C117.419 45.8984 117.173 45.6361 116.953 45.2637C116.919 45.2129 116.868 45.1875 116.801 45.1875H116.572C116.488 44.9844 116.386 44.7728 116.268 44.5527C116.149 44.3158 116.031 44.0788 115.912 43.8418C115.794 43.5879 115.692 43.3424 115.607 43.1055C115.523 42.8516 115.48 42.623 115.48 42.4199C115.48 41.5566 115.557 40.7018 115.709 39.8555C115.878 38.9922 115.963 38.1204 115.963 37.2402V36.9863C115.624 37.071 115.286 37.1895 114.947 37.3418C114.626 37.4941 114.296 37.6126 113.957 37.6973C113.839 37.7311 113.771 37.7904 113.754 37.875C113.737 37.9596 113.686 38.0273 113.602 38.0781C113.432 38.0951 113.271 38.112 113.119 38.1289C112.967 38.1289 112.823 38.1289 112.688 38.1289C112.4 38.1289 112.095 38.1204 111.773 38.1035C111.469 38.0697 111.164 38.0104 110.859 37.9258C110.555 37.8411 110.267 37.7227 109.996 37.5703C109.742 37.418 109.514 37.2233 109.311 36.9863C109.277 37.0033 109.234 37.0202 109.184 37.0371C109.133 37.054 109.082 37.0625 109.031 37.0625C108.98 37.0625 108.93 37.054 108.879 37.0371C108.828 37.0202 108.786 37.0033 108.752 36.9863C108.617 36.8001 108.507 36.597 108.422 36.377L108.168 35.7168C108.083 35.4967 107.99 35.2852 107.889 35.082C107.787 34.8789 107.652 34.6927 107.482 34.5234C107.432 34.2188 107.406 33.9225 107.406 33.6348C107.406 33.3301 107.432 33.0339 107.482 32.7461C107.516 32.4583 107.576 32.1706 107.66 31.8828C107.592 31.6797 107.55 31.4681 107.533 31.248C107.499 31.028 107.482 30.8079 107.482 30.5879C107.482 30.334 107.508 30.0716 107.559 29.8008C107.609 29.5299 107.694 29.2845 107.812 29.0645C107.931 28.8275 108.1 28.6328 108.32 28.4805C108.523 28.3281 108.777 28.252 109.082 28.252C109.421 28.252 109.734 28.3451 110.021 28.5312C110.309 28.7005 110.589 28.8783 110.859 29.0645C110.893 29.2676 110.919 29.4707 110.936 29.6738C110.952 29.86 110.961 30.0632 110.961 30.2832C110.961 30.6895 110.936 31.1042 110.885 31.5273C110.851 31.9336 110.834 32.3483 110.834 32.7715C110.834 33.2116 110.885 33.6263 110.986 34.0156C111.105 34.388 111.308 34.7435 111.596 35.082H111.697C111.833 35.0651 111.951 35.0905 112.053 35.1582C112.154 35.2259 112.273 35.2598 112.408 35.2598C112.527 35.2598 112.62 35.2174 112.688 35.1328C112.755 35.0312 112.84 34.9805 112.941 34.9805C113.043 34.9805 113.119 34.9974 113.17 35.0312C113.221 35.0651 113.263 35.082 113.297 35.082C113.483 35.082 113.695 35.0143 113.932 34.8789C114.169 34.7435 114.321 34.5911 114.389 34.4219C114.456 34.4727 114.541 34.498 114.643 34.498C114.778 34.498 114.905 34.4557 115.023 34.3711C115.142 34.2865 115.294 34.2441 115.48 34.2441C115.582 34.2441 115.616 34.1849 115.582 34.0664C115.565 33.931 115.599 33.8464 115.684 33.8125C115.887 33.7279 116.107 33.6094 116.344 33.457C116.598 33.2878 116.801 33.1862 116.953 33.1523C117.038 32.9323 117.139 32.7292 117.258 32.543C117.393 32.3398 117.529 32.1536 117.664 31.9844C117.715 31.5951 117.816 31.2227 117.969 30.8672C118.121 30.5117 118.282 30.1562 118.451 29.8008C118.62 29.4453 118.781 29.0898 118.934 28.7344C119.086 28.3789 119.188 28.0065 119.238 27.6172C119.424 27.431 119.568 27.2279 119.67 27.0078C119.788 26.7878 119.89 26.5677 119.975 26.3477C120.144 26.2969 120.355 26.2715 120.609 26.2715C120.863 26.2546 121.083 26.2461 121.27 26.2461H121.701C121.752 26.3477 121.82 26.4408 121.904 26.5254L122.158 26.7793C122.006 27.0163 121.93 27.2533 121.93 27.4902C121.93 27.6764 121.972 27.8626 122.057 28.0488C122.141 28.2181 122.234 28.3789 122.336 28.5312Z"
    fill="#E21C34" />
</svg>