<svg viewBox="0 0 338 210" fill="none" xmlns="http://www.w3.org/2000/svg">
  <g filter="url(#a98cad11-2d65-47e1-8191-a8393293c7bc)">
    <path
      d="M10.0097 41H11.0737V29.45H8.91766V30.5H10.0097V41ZM16.2479 41.224C17.0272 41.224 17.6619 41.014 18.1519 40.594C18.6465 40.174 18.8939 39.6047 18.8939 38.886C18.8939 38.466 18.8075 38.1347 18.6349 37.892C18.4622 37.6447 18.2195 37.4417 17.9069 37.283C17.5942 37.1197 17.2302 36.961 16.8149 36.807C16.5255 36.695 16.2549 36.583 16.0029 36.471C15.7555 36.359 15.5549 36.226 15.4009 36.072C15.2469 35.9133 15.1699 35.7127 15.1699 35.47C15.1699 35.1387 15.2912 34.8703 15.5339 34.665C15.7812 34.4597 16.1009 34.357 16.4929 34.357C17.1322 34.357 17.6665 34.6393 18.0959 35.204L18.5649 34.609C18.2849 34.2917 17.9675 34.0467 17.6129 33.874C17.2629 33.7013 16.8872 33.615 16.4859 33.615C16.0472 33.615 15.6552 33.699 15.3099 33.867C14.9645 34.0303 14.6939 34.2567 14.4979 34.546C14.3019 34.8307 14.2039 35.1573 14.2039 35.526C14.2039 35.89 14.2949 36.191 14.4769 36.429C14.6635 36.6623 14.8992 36.856 15.1839 37.01C15.4685 37.164 15.7625 37.3017 16.0659 37.423C16.4532 37.5723 16.7799 37.7053 17.0459 37.822C17.3119 37.9387 17.5125 38.0787 17.6479 38.242C17.7879 38.4053 17.8579 38.6317 17.8579 38.921C17.8579 39.3877 17.6992 39.7563 17.3819 40.027C17.0645 40.2977 16.6842 40.433 16.2409 40.433C15.8022 40.433 15.4032 40.307 15.0439 40.055C14.6845 39.7983 14.3929 39.4413 14.1689 38.984L13.6229 39.572C13.8749 40.0993 14.2272 40.5077 14.6799 40.797C15.1325 41.0817 15.6552 41.224 16.2479 41.224ZM22.9795 41.224C23.4368 41.224 23.8381 41.1167 24.1835 40.902L23.9245 40.09C23.7191 40.244 23.4765 40.321 23.1965 40.321C22.6038 40.321 22.3075 39.9127 22.3075 39.096V34.602H24.0925V33.832H22.3075V31.151H21.2855V33.832H20.5575V34.602H21.2855V39.152C21.2855 39.81 21.4325 40.321 21.7265 40.685C22.0251 41.0443 22.4428 41.224 22.9795 41.224Z"
      fill="white" fill-opacity="0.5" />
    <path
      d="M129.729 41H130.87L132.291 37.318H137.254L138.661 41H139.809L135.266 29.45H134.279L129.729 41ZM132.648 36.38L134.769 30.85L136.89 36.38H132.648ZM142.071 41H143.093V36.331C143.093 35.995 143.175 35.6847 143.338 35.4C143.506 35.1107 143.747 34.8797 144.059 34.707C144.372 34.5297 144.748 34.441 145.186 34.441C145.812 34.441 146.297 34.637 146.642 35.029C146.992 35.421 147.167 35.9857 147.167 36.723V41H148.189V36.527C148.189 35.603 147.949 34.8867 147.468 34.378C146.992 33.8647 146.339 33.608 145.508 33.608C144.916 33.608 144.412 33.7247 143.996 33.958C143.586 34.1913 143.285 34.476 143.093 34.812V33.832H142.071V41ZM151.068 41H152.09V36.331C152.09 35.995 152.171 35.6847 152.335 35.4C152.503 35.1107 152.743 34.8797 153.056 34.707C153.368 34.5297 153.744 34.441 154.183 34.441C154.808 34.441 155.293 34.637 155.639 35.029C155.989 35.421 156.164 35.9857 156.164 36.723V41H157.186V36.527C157.186 35.603 156.945 34.8867 156.465 34.378C155.989 33.8647 155.335 33.608 154.505 33.608C153.912 33.608 153.408 33.7247 152.993 33.958C152.582 34.1913 152.281 34.476 152.09 34.812V33.832H151.068V41ZM163.424 41.224C164.138 41.224 164.786 41.07 165.37 40.762C165.958 40.454 166.422 40.0223 166.763 39.467L166.007 39.061C165.409 39.9383 164.562 40.377 163.466 40.377C162.896 40.377 162.39 40.2557 161.947 40.013C161.503 39.7657 161.156 39.4273 160.904 38.998C160.656 38.564 160.533 38.0693 160.533 37.514H166.987C166.996 37.4627 167.001 37.4183 167.001 37.381C167.005 37.3437 167.008 37.2993 167.008 37.248C166.989 36.534 166.816 35.904 166.49 35.358C166.168 34.8073 165.729 34.378 165.174 34.07C164.623 33.762 163.993 33.608 163.284 33.608C162.766 33.608 162.278 33.706 161.821 33.902C161.368 34.098 160.969 34.371 160.624 34.721C160.278 35.071 160.008 35.4793 159.812 35.946C159.616 36.408 159.518 36.9073 159.518 37.444C159.518 38.158 159.686 38.802 160.022 39.376C160.362 39.9453 160.827 40.3957 161.415 40.727C162.003 41.0583 162.672 41.224 163.424 41.224ZM160.589 36.744C160.649 36.2913 160.803 35.8947 161.051 35.554C161.303 35.2087 161.622 34.9403 162.01 34.749C162.397 34.553 162.826 34.455 163.298 34.455C163.76 34.455 164.182 34.553 164.565 34.749C164.947 34.945 165.265 35.2157 165.517 35.561C165.769 35.9063 165.925 36.3007 165.986 36.744H160.589ZM172.731 41H173.795L175.076 31.431L178.373 40.293H179.136L182.433 31.431L183.714 41H184.778L183.28 29.45H182.153L178.751 38.487L175.356 29.45H174.229L172.731 41ZM190.562 41.224C191.197 41.224 191.773 41.07 192.291 40.762C192.809 40.454 193.222 40.0293 193.53 39.488V41H194.552V33.832H193.53V35.323C193.259 34.7863 192.858 34.3663 192.326 34.063C191.799 33.7597 191.211 33.608 190.562 33.608C189.881 33.608 189.269 33.7737 188.728 34.105C188.191 34.4317 187.767 34.882 187.454 35.456C187.146 36.03 186.992 36.681 186.992 37.409C186.992 38.1463 187.148 38.802 187.461 39.376C187.778 39.95 188.205 40.4027 188.742 40.734C189.279 41.0607 189.885 41.224 190.562 41.224ZM190.814 40.335C190.282 40.335 189.806 40.209 189.386 39.957C188.971 39.705 188.644 39.3597 188.406 38.921C188.168 38.4823 188.049 37.9807 188.049 37.416C188.049 36.8467 188.168 36.3427 188.406 35.904C188.644 35.4653 188.971 35.1223 189.386 34.875C189.801 34.623 190.277 34.497 190.814 34.497C191.351 34.497 191.827 34.623 192.242 34.875C192.657 35.1223 192.982 35.4653 193.215 35.904C193.453 36.3427 193.572 36.8467 193.572 37.416C193.572 37.9807 193.453 38.4847 193.215 38.928C192.977 39.3667 192.65 39.712 192.235 39.964C191.824 40.2113 191.351 40.335 190.814 40.335ZM197.566 41H198.588V36.268C198.588 35.9647 198.679 35.68 198.861 35.414C199.047 35.1433 199.288 34.924 199.582 34.756C199.88 34.588 200.193 34.504 200.52 34.504C200.879 34.504 201.21 34.5763 201.514 34.721L201.934 33.86C201.584 33.692 201.182 33.608 200.73 33.608C199.764 33.608 199.05 34.035 198.588 34.889V33.832H197.566V41ZM204.331 32.397C204.518 32.397 204.677 32.3317 204.807 32.201C204.938 32.0703 205.003 31.9117 205.003 31.725C205.003 31.5383 204.938 31.382 204.807 31.256C204.677 31.1253 204.518 31.06 204.331 31.06C204.145 31.06 203.986 31.1253 203.855 31.256C203.729 31.382 203.666 31.5383 203.666 31.725C203.666 31.9117 203.729 32.0703 203.855 32.201C203.986 32.3317 204.145 32.397 204.331 32.397ZM203.82 41H204.842V33.832H203.82V41ZM211.22 41.224C211.934 41.224 212.583 41.07 213.166 40.762C213.754 40.454 214.219 40.0223 214.559 39.467L213.803 39.061C213.206 39.9383 212.359 40.377 211.262 40.377C210.693 40.377 210.187 40.2557 209.743 40.013C209.3 39.7657 208.952 39.4273 208.7 38.998C208.453 38.564 208.329 38.0693 208.329 37.514H214.783C214.793 37.4627 214.797 37.4183 214.797 37.381C214.802 37.3437 214.804 37.2993 214.804 37.248C214.786 36.534 214.613 35.904 214.286 35.358C213.964 34.8073 213.526 34.378 212.97 34.07C212.42 33.762 211.79 33.608 211.08 33.608C210.562 33.608 210.075 33.706 209.617 33.902C209.165 34.098 208.766 34.371 208.42 34.721C208.075 35.071 207.804 35.4793 207.608 35.946C207.412 36.408 207.314 36.9073 207.314 37.444C207.314 38.158 207.482 38.802 207.818 39.376C208.159 39.9453 208.623 40.3957 209.211 40.727C209.799 41.0583 210.469 41.224 211.22 41.224ZM208.385 36.744C208.446 36.2913 208.6 35.8947 208.847 35.554C209.099 35.2087 209.419 34.9403 209.806 34.749C210.194 34.553 210.623 34.455 211.094 34.455C211.556 34.455 211.979 34.553 212.361 34.749C212.744 34.945 213.061 35.2157 213.313 35.561C213.565 35.9063 213.722 36.3007 213.782 36.744H208.385ZM221.186 41H227.087V40.062H222.25V29.45H221.186V41ZM230.528 41.224C230.729 41.224 230.897 41.154 231.032 41.014C231.172 40.874 231.242 40.7037 231.242 40.503C231.242 40.307 231.172 40.139 231.032 39.999C230.897 39.859 230.729 39.789 230.528 39.789C230.332 39.789 230.164 39.859 230.024 39.999C229.884 40.139 229.814 40.307 229.814 40.503C229.814 40.7037 229.884 40.874 230.024 41.014C230.164 41.154 230.332 41.224 230.528 41.224Z"
      fill="white" fill-opacity="0.5" />
    <path
      d="M312.331 42.224C313.073 42.224 313.71 42.0817 314.242 41.797C314.779 41.5123 315.189 41.125 315.474 40.635C315.763 40.1403 315.908 39.5827 315.908 38.962C315.908 38.2247 315.717 37.5993 315.334 37.086C314.951 36.568 314.48 36.218 313.92 36.036C314.461 35.8213 314.895 35.469 315.222 34.979C315.553 34.489 315.719 33.943 315.719 33.341C315.719 32.7623 315.577 32.2397 315.292 31.773C315.007 31.3017 314.62 30.9283 314.13 30.653C313.64 30.3777 313.089 30.24 312.478 30.24C311.918 30.24 311.402 30.3637 310.931 30.611C310.46 30.8537 310.075 31.1897 309.776 31.619C309.477 32.0437 309.305 32.5313 309.258 33.082L310.154 33.383C310.173 32.9677 310.287 32.592 310.497 32.256C310.707 31.9153 310.985 31.647 311.33 31.451C311.675 31.2503 312.053 31.15 312.464 31.15C312.875 31.15 313.248 31.248 313.584 31.444C313.925 31.6353 314.198 31.899 314.403 32.235C314.608 32.5663 314.711 32.942 314.711 33.362C314.711 33.782 314.604 34.1693 314.389 34.524C314.179 34.8787 313.894 35.1633 313.535 35.378C313.176 35.588 312.77 35.693 312.317 35.693H311.932V36.498C312.067 36.4607 312.214 36.442 312.373 36.442C312.821 36.442 313.229 36.5563 313.598 36.785C313.967 37.009 314.261 37.3147 314.48 37.702C314.699 38.0847 314.809 38.514 314.809 38.99C314.809 39.6573 314.585 40.201 314.137 40.621C313.689 41.0363 313.087 41.244 312.331 41.244C311.818 41.244 311.36 41.146 310.959 40.95C310.558 40.7493 310.24 40.4717 310.007 40.117C309.778 39.7577 309.659 39.3447 309.65 38.878L308.628 39.235C308.689 39.8277 308.882 40.3503 309.209 40.803C309.536 41.251 309.967 41.601 310.504 41.853C311.041 42.1003 311.65 42.224 312.331 42.224ZM323.068 42.224C324.011 42.224 324.834 41.9743 325.539 41.475C326.244 40.971 326.792 40.271 327.184 39.375C327.581 38.4743 327.779 37.4267 327.779 36.232C327.779 35.0373 327.581 33.992 327.184 33.096C326.792 32.1953 326.244 31.4953 325.539 30.996C324.834 30.492 324.011 30.24 323.068 30.24C322.13 30.24 321.306 30.492 320.597 30.996C319.892 31.4953 319.342 32.1953 318.945 33.096C318.553 33.992 318.357 35.0373 318.357 36.232C318.357 37.4267 318.553 38.4743 318.945 39.375C319.342 40.271 319.892 40.971 320.597 41.475C321.306 41.9743 322.13 42.224 323.068 42.224ZM323.068 41.265C322.349 41.265 321.719 41.0573 321.178 40.642C320.641 40.2267 320.224 39.641 319.925 38.885C319.631 38.129 319.484 37.2447 319.484 36.232C319.484 35.2147 319.631 34.3303 319.925 33.579C320.224 32.823 320.641 32.2373 321.178 31.822C321.719 31.4067 322.349 31.199 323.068 31.199C323.787 31.199 324.414 31.4067 324.951 31.822C325.488 32.2373 325.905 32.823 326.204 33.579C326.503 34.3303 326.652 35.2147 326.652 36.232C326.652 37.2447 326.503 38.129 326.204 38.885C325.905 39.641 325.488 40.2267 324.951 40.642C324.414 41.0573 323.787 41.265 323.068 41.265Z"
      fill="white" fill-opacity="0.5" />
    <path
      d="M109.973 37C109.973 53.5685 96.5412 67 79.9727 67C63.4041 67 49.9727 53.5685 49.9727 37C49.9727 20.4315 63.4041 7 79.9727 7C96.5412 7 109.973 20.4315 109.973 37Z"
      fill="#414A5E" />
    <path
      d="M90.5132 30.5135C90.5132 36.3349 85.794 41.0541 79.9727 41.0541C74.1513 41.0541 69.4321 36.3349 69.4321 30.5135C69.4321 24.6921 74.1513 19.973 79.9727 19.973C85.794 19.973 90.5132 24.6921 90.5132 30.5135Z"
      fill="#414A5E" />
    <path
      d="M109.473 37C109.473 53.2924 96.2651 66.5 79.9727 66.5C63.6803 66.5 50.4727 53.2924 50.4727 37C50.4727 20.7076 63.6803 7.5 79.9727 7.5C96.2651 7.5 109.473 20.7076 109.473 37ZM90.0132 30.5135C90.0132 36.0588 85.5179 40.5541 79.9727 40.5541C74.4274 40.5541 69.9321 36.0588 69.9321 30.5135C69.9321 24.9683 74.4274 20.473 79.9727 20.473C85.5179 20.473 90.0132 24.9683 90.0132 30.5135ZM79.9727 41.5541C86.0702 41.5541 91.0132 36.611 91.0132 30.5135C91.0132 24.416 86.0702 19.473 79.9727 19.473C73.8751 19.473 68.9321 24.416 68.9321 30.5135C68.9321 36.611 73.8751 41.5541 79.9727 41.5541Z"
      stroke="white" stroke-opacity="0.5" />
  </g>
  <g filter="url(#f42cdb75-9ae4-4f6a-add5-a2fa13776005)">
    <path
      d="M7.882 109H16.065V107.999H10.045C11.1883 107.108 12.1357 106.328 12.887 105.661C13.6383 104.994 14.2287 104.401 14.658 103.883C15.092 103.36 15.4 102.873 15.582 102.42C15.764 101.967 15.855 101.508 15.855 101.041C15.855 100.318 15.6823 99.669 15.337 99.095C14.9917 98.521 14.525 98.0683 13.937 97.737C13.349 97.401 12.6933 97.233 11.97 97.233C11.2747 97.233 10.6423 97.3917 10.073 97.709C9.50367 98.0217 9.03933 98.451 8.68 98.997C8.32533 99.5383 8.113 100.154 8.043 100.845L9.002 101.167C9.05333 100.602 9.212 100.101 9.478 99.662C9.74867 99.2187 10.0963 98.871 10.521 98.619C10.9457 98.367 11.4123 98.241 11.921 98.241C12.4343 98.241 12.901 98.367 13.321 98.619C13.741 98.871 14.0747 99.2093 14.322 99.634C14.574 100.059 14.7 100.532 14.7 101.055C14.7 101.466 14.595 101.89 14.385 102.329C14.175 102.768 13.8157 103.265 13.307 103.82C12.7983 104.375 12.103 105.031 11.221 105.787C10.339 106.543 9.226 107.448 7.882 108.503V109ZM18.6769 109H19.6989V104.331C19.6989 103.995 19.7805 103.685 19.9439 103.4C20.1119 103.111 20.3522 102.88 20.6649 102.707C20.9775 102.53 21.3532 102.441 21.7919 102.441C22.4172 102.441 22.9025 102.637 23.2479 103.029C23.5979 103.421 23.7729 103.986 23.7729 104.723V109H24.7949V104.527C24.7949 103.603 24.5545 102.887 24.0739 102.378C23.5979 101.865 22.9445 101.608 22.1139 101.608C21.5212 101.608 21.0172 101.725 20.6019 101.958C20.1912 102.191 19.8902 102.476 19.6989 102.812V101.832H18.6769V109ZM30.732 109.224C31.3666 109.224 31.943 109.07 32.461 108.762C32.9836 108.454 33.3966 108.029 33.7 107.488V109H34.722V96.953H33.7V103.323C33.406 102.786 33 102.366 32.482 102.063C31.964 101.76 31.3853 101.608 30.746 101.608C30.06 101.608 29.4463 101.774 28.905 102.105C28.3683 102.432 27.9436 102.882 27.631 103.456C27.3183 104.03 27.162 104.683 27.162 105.416C27.162 106.153 27.3183 106.809 27.631 107.383C27.9483 107.957 28.3753 108.407 28.912 108.734C29.4533 109.061 30.06 109.224 30.732 109.224ZM30.977 108.335C30.4403 108.335 29.9643 108.209 29.549 107.957C29.1336 107.705 28.807 107.36 28.569 106.921C28.3356 106.482 28.219 105.983 28.219 105.423C28.219 104.854 28.338 104.35 28.576 103.911C28.814 103.468 29.1406 103.122 29.556 102.875C29.9713 102.623 30.4473 102.497 30.984 102.497C31.5206 102.497 31.9943 102.623 32.405 102.875C32.8203 103.122 33.147 103.468 33.385 103.911C33.623 104.35 33.742 104.854 33.742 105.423C33.742 105.988 33.623 106.489 33.385 106.928C33.147 107.367 32.8203 107.712 32.405 107.964C31.9896 108.211 31.5136 108.335 30.977 108.335Z"
      fill="white" fill-opacity="0.5" />
    <path
      d="M129.225 109H130.289L131.57 99.431L134.867 108.293H135.63L138.927 99.431L140.208 109H141.272L139.774 97.45H138.647L135.245 106.487L131.85 97.45H130.723L129.225 109ZM147.056 109.224C147.691 109.224 148.267 109.07 148.785 108.762C149.303 108.454 149.716 108.029 150.024 107.488V109H151.046V101.832H150.024V103.323C149.754 102.786 149.352 102.366 148.82 102.063C148.293 101.76 147.705 101.608 147.056 101.608C146.375 101.608 145.764 101.774 145.222 102.105C144.686 102.432 144.261 102.882 143.948 103.456C143.64 104.03 143.486 104.681 143.486 105.409C143.486 106.146 143.643 106.802 143.955 107.376C144.273 107.95 144.7 108.403 145.236 108.734C145.773 109.061 146.38 109.224 147.056 109.224ZM147.308 108.335C146.776 108.335 146.3 108.209 145.88 107.957C145.465 107.705 145.138 107.36 144.9 106.921C144.662 106.482 144.543 105.981 144.543 105.416C144.543 104.847 144.662 104.343 144.9 103.904C145.138 103.465 145.465 103.122 145.88 102.875C146.296 102.623 146.772 102.497 147.308 102.497C147.845 102.497 148.321 102.623 148.736 102.875C149.152 103.122 149.476 103.465 149.709 103.904C149.947 104.343 150.066 104.847 150.066 105.416C150.066 105.981 149.947 106.485 149.709 106.928C149.471 107.367 149.145 107.712 148.729 107.964C148.319 108.211 147.845 108.335 147.308 108.335ZM154.06 109H155.082V104.268C155.082 103.965 155.173 103.68 155.355 103.414C155.541 103.143 155.782 102.924 156.076 102.756C156.374 102.588 156.687 102.504 157.014 102.504C157.373 102.504 157.704 102.576 158.008 102.721L158.428 101.86C158.078 101.692 157.676 101.608 157.224 101.608C156.258 101.608 155.544 102.035 155.082 102.889V101.832H154.06V109ZM160.825 100.397C161.012 100.397 161.171 100.332 161.301 100.201C161.432 100.07 161.497 99.9117 161.497 99.725C161.497 99.5383 161.432 99.382 161.301 99.256C161.171 99.1253 161.012 99.06 160.825 99.06C160.639 99.06 160.48 99.1253 160.349 99.256C160.223 99.382 160.16 99.5383 160.16 99.725C160.16 99.9117 160.223 100.07 160.349 100.201C160.48 100.332 160.639 100.397 160.825 100.397ZM160.314 109H161.336V101.832H160.314V109ZM167.778 109.224C168.524 109.224 169.196 109.063 169.794 108.741C170.396 108.419 170.872 107.971 171.222 107.397C171.572 106.823 171.747 106.163 171.747 105.416C171.747 104.665 171.572 104.004 171.222 103.435C170.872 102.861 170.396 102.413 169.794 102.091C169.196 101.769 168.524 101.608 167.778 101.608C167.031 101.608 166.357 101.769 165.755 102.091C165.157 102.413 164.684 102.861 164.334 103.435C163.984 104.004 163.809 104.665 163.809 105.416C163.809 106.163 163.984 106.823 164.334 107.397C164.684 107.971 165.157 108.419 165.755 108.741C166.357 109.063 167.031 109.224 167.778 109.224ZM167.778 108.314C167.218 108.314 166.718 108.19 166.28 107.943C165.841 107.696 165.496 107.355 165.244 106.921C164.992 106.482 164.866 105.981 164.866 105.416C164.866 104.851 164.992 104.352 165.244 103.918C165.496 103.479 165.841 103.136 166.28 102.889C166.718 102.642 167.218 102.518 167.778 102.518C168.338 102.518 168.837 102.642 169.276 102.889C169.714 103.136 170.06 103.479 170.312 103.918C170.564 104.352 170.69 104.851 170.69 105.416C170.69 105.981 170.564 106.482 170.312 106.921C170.06 107.355 169.714 107.696 169.276 107.943C168.837 108.19 168.338 108.314 167.778 108.314ZM177.696 109H181.098C182.227 109 183.111 108.727 183.751 108.181C184.395 107.635 184.717 106.877 184.717 105.906C184.717 105.085 184.483 104.42 184.017 103.911C183.55 103.402 182.887 103.09 182.029 102.973C183.139 102.511 183.695 101.643 183.695 100.369C183.695 99.4217 183.382 98.6983 182.757 98.199C182.136 97.6997 181.263 97.45 180.139 97.45H177.696V109ZM178.76 102.644V98.297H179.95C180.827 98.297 181.501 98.486 181.973 98.864C182.444 99.2373 182.68 99.774 182.68 100.474C182.68 101.169 182.444 101.706 181.973 102.084C181.501 102.457 180.827 102.644 179.95 102.644H178.76ZM178.76 108.132V103.582H180.818C181.709 103.582 182.4 103.785 182.89 104.191C183.384 104.592 183.632 105.155 183.632 105.878C183.632 106.597 183.387 107.152 182.897 107.544C182.411 107.936 181.718 108.132 180.818 108.132H178.76ZM188.048 109.224C188.249 109.224 188.417 109.154 188.552 109.014C188.692 108.874 188.762 108.704 188.762 108.503C188.762 108.307 188.692 108.139 188.552 107.999C188.417 107.859 188.249 107.789 188.048 107.789C187.852 107.789 187.684 107.859 187.544 107.999C187.404 108.139 187.334 108.307 187.334 108.503C187.334 108.704 187.404 108.874 187.544 109.014C187.684 109.154 187.852 109.224 188.048 109.224Z"
      fill="white" fill-opacity="0.5" />
    <path
      d="M309.249 110H317.432V108.999H311.412C312.556 108.108 313.503 107.328 314.254 106.661C315.006 105.994 315.596 105.401 316.025 104.883C316.459 104.36 316.767 103.873 316.949 103.42C317.131 102.967 317.222 102.508 317.222 102.041C317.222 101.318 317.05 100.669 316.704 100.095C316.359 99.521 315.892 99.0683 315.304 98.737C314.716 98.401 314.061 98.233 313.337 98.233C312.642 98.233 312.01 98.3917 311.44 98.709C310.871 99.0217 310.407 99.451 310.047 99.997C309.693 100.538 309.48 101.154 309.41 101.845L310.369 102.167C310.421 101.602 310.579 101.101 310.845 100.662C311.116 100.219 311.464 99.871 311.888 99.619C312.313 99.367 312.78 99.241 313.288 99.241C313.802 99.241 314.268 99.367 314.688 99.619C315.108 99.871 315.442 100.209 315.689 100.634C315.941 101.059 316.067 101.532 316.067 102.055C316.067 102.466 315.962 102.89 315.752 103.329C315.542 103.768 315.183 104.265 314.674 104.82C314.166 105.375 313.47 106.031 312.588 106.787C311.706 107.543 310.593 108.448 309.249 109.503V110ZM324.755 110H325.77V107.774H327.114V106.836H325.77V98.45H324.713L318.966 107.298V107.774H324.755V110ZM320.352 106.836L324.755 99.927V106.836H320.352Z"
      fill="white" fill-opacity="0.5" />
    <path
      d="M109 105C109 121.569 95.5685 135 79 135C62.4315 135 49 121.569 49 105C49 88.4315 62.4315 75 79 75C95.5685 75 109 88.4315 109 105Z"
      fill="#414A5E" />
    <path
      d="M89.5405 98.5135C89.5405 104.335 84.8214 109.054 79 109.054C73.1786 109.054 68.4595 104.335 68.4595 98.5135C68.4595 92.6921 73.1786 87.973 79 87.973C84.8214 87.973 89.5405 92.6921 89.5405 98.5135Z"
      fill="#414A5E" />
    <path
      d="M108.5 105C108.5 121.292 95.2924 134.5 79 134.5C62.7076 134.5 49.5 121.292 49.5 105C49.5 88.7076 62.7076 75.5 79 75.5C95.2924 75.5 108.5 88.7076 108.5 105ZM89.0405 98.5135C89.0405 104.059 84.5452 108.554 79 108.554C73.4548 108.554 68.9595 104.059 68.9595 98.5135C68.9595 92.9683 73.4548 88.473 79 88.473C84.5452 88.473 89.0405 92.9683 89.0405 98.5135ZM79 109.554C85.0975 109.554 90.0405 104.611 90.0405 98.5135C90.0405 92.416 85.0975 87.473 79 87.473C72.9025 87.473 67.9595 92.416 67.9595 98.5135C67.9595 104.611 72.9025 109.554 79 109.554Z"
      stroke="white" stroke-opacity="0.5" />
  </g>
  <g filter="url(#f460f28e-9d40-4037-b0c1-50250db006a6)">
    <path
      d="M13.4813 177.224C14.2233 177.224 14.8603 177.082 15.3923 176.797C15.929 176.512 16.3396 176.125 16.6243 175.635C16.9136 175.14 17.0583 174.583 17.0583 173.962C17.0583 173.225 16.867 172.599 16.4843 172.086C16.1016 171.568 15.6303 171.218 15.0703 171.036C15.6116 170.821 16.0456 170.469 16.3723 169.979C16.7036 169.489 16.8693 168.943 16.8693 168.341C16.8693 167.762 16.727 167.24 16.4423 166.773C16.1576 166.302 15.7703 165.928 15.2803 165.653C14.7903 165.378 14.2396 165.24 13.6283 165.24C13.0683 165.24 12.5526 165.364 12.0813 165.611C11.61 165.854 11.225 166.19 10.9263 166.619C10.6276 167.044 10.455 167.531 10.4083 168.082L11.3043 168.383C11.323 167.968 11.4373 167.592 11.6473 167.256C11.8573 166.915 12.135 166.647 12.4803 166.451C12.8256 166.25 13.2036 166.15 13.6143 166.15C14.025 166.15 14.3983 166.248 14.7343 166.444C15.075 166.635 15.348 166.899 15.5533 167.235C15.7586 167.566 15.8613 167.942 15.8613 168.362C15.8613 168.782 15.754 169.169 15.5393 169.524C15.3293 169.879 15.0446 170.163 14.6853 170.378C14.326 170.588 13.92 170.693 13.4673 170.693H13.0823V171.498C13.2176 171.461 13.3646 171.442 13.5233 171.442C13.9713 171.442 14.3796 171.556 14.7483 171.785C15.117 172.009 15.411 172.315 15.6303 172.702C15.8496 173.085 15.9593 173.514 15.9593 173.99C15.9593 174.657 15.7353 175.201 15.2873 175.621C14.8393 176.036 14.2373 176.244 13.4813 176.244C12.968 176.244 12.5106 176.146 12.1093 175.95C11.708 175.749 11.3906 175.472 11.1573 175.117C10.9286 174.758 10.8096 174.345 10.8003 173.878L9.77831 174.235C9.83898 174.828 10.0326 175.35 10.3593 175.803C10.686 176.251 11.1176 176.601 11.6543 176.853C12.191 177.1 12.8 177.224 13.4813 177.224ZM19.8155 177H20.8375V172.268C20.8375 171.965 20.9285 171.68 21.1105 171.414C21.2972 171.143 21.5375 170.924 21.8315 170.756C22.1302 170.588 22.4429 170.504 22.7695 170.504C23.1289 170.504 23.4602 170.576 23.7635 170.721L24.1835 169.86C23.8335 169.692 23.4322 169.608 22.9795 169.608C22.0135 169.608 21.2995 170.035 20.8375 170.889V169.832H19.8155V177ZM29.1363 177.224C29.7709 177.224 30.3473 177.07 30.8653 176.762C31.3879 176.454 31.8009 176.029 32.1043 175.488V177H33.1263V164.953H32.1043V171.323C31.8103 170.786 31.4043 170.366 30.8863 170.063C30.3683 169.76 29.7896 169.608 29.1503 169.608C28.4643 169.608 27.8506 169.774 27.3093 170.105C26.7726 170.432 26.3479 170.882 26.0353 171.456C25.7226 172.03 25.5663 172.683 25.5663 173.416C25.5663 174.153 25.7226 174.809 26.0353 175.383C26.3526 175.957 26.7796 176.407 27.3163 176.734C27.8576 177.061 28.4643 177.224 29.1363 177.224ZM29.3813 176.335C28.8446 176.335 28.3686 176.209 27.9533 175.957C27.5379 175.705 27.2113 175.36 26.9733 174.921C26.7399 174.482 26.6233 173.983 26.6233 173.423C26.6233 172.854 26.7423 172.35 26.9803 171.911C27.2183 171.468 27.5449 171.122 27.9603 170.875C28.3756 170.623 28.8516 170.497 29.3883 170.497C29.9249 170.497 30.3986 170.623 30.8093 170.875C31.2246 171.122 31.5513 171.468 31.7893 171.911C32.0273 172.35 32.1463 172.854 32.1463 173.423C32.1463 173.988 32.0273 174.489 31.7893 174.928C31.5513 175.367 31.2246 175.712 30.8093 175.964C30.3939 176.211 29.9179 176.335 29.3813 176.335Z"
      fill="white" fill-opacity="0.5" />
    <path
      d="M131.338 177H134.74C135.87 177 136.754 176.727 137.393 176.181C138.037 175.635 138.359 174.877 138.359 173.906C138.359 173.085 138.126 172.42 137.659 171.911C137.193 171.402 136.53 171.09 135.671 170.973C136.782 170.511 137.337 169.643 137.337 168.369C137.337 167.422 137.025 166.698 136.399 166.199C135.779 165.7 134.906 165.45 133.781 165.45H131.338V177ZM132.402 170.644V166.297H133.592C134.47 166.297 135.144 166.486 135.615 166.864C136.087 167.237 136.322 167.774 136.322 168.474C136.322 169.169 136.087 169.706 135.615 170.084C135.144 170.457 134.47 170.644 133.592 170.644H132.402ZM132.402 176.132V171.582H134.46C135.352 171.582 136.042 171.785 136.532 172.191C137.027 172.592 137.274 173.155 137.274 173.878C137.274 174.597 137.029 175.152 136.539 175.544C136.054 175.936 135.361 176.132 134.46 176.132H132.402ZM140.528 177H141.55V172.268C141.55 171.965 141.641 171.68 141.823 171.414C142.01 171.143 142.25 170.924 142.544 170.756C142.843 170.588 143.156 170.504 143.482 170.504C143.842 170.504 144.173 170.576 144.476 170.721L144.896 169.86C144.546 169.692 144.145 169.608 143.692 169.608C142.726 169.608 142.012 170.035 141.55 170.889V169.832H140.528V177ZM147.371 180.64H148.526L153.447 169.832H152.292L149.716 175.775L146.881 169.832H145.726L149.135 176.825L147.371 180.64ZM158.38 177.224C159.015 177.224 159.591 177.07 160.109 176.762C160.627 176.454 161.04 176.029 161.348 175.488V177H162.37V169.832H161.348V171.323C161.078 170.786 160.676 170.366 160.144 170.063C159.617 169.76 159.029 169.608 158.38 169.608C157.699 169.608 157.088 169.774 156.546 170.105C156.01 170.432 155.585 170.882 155.272 171.456C154.964 172.03 154.81 172.681 154.81 173.409C154.81 174.146 154.967 174.802 155.279 175.376C155.597 175.95 156.024 176.403 156.56 176.734C157.097 177.061 157.704 177.224 158.38 177.224ZM158.632 176.335C158.1 176.335 157.624 176.209 157.204 175.957C156.789 175.705 156.462 175.36 156.224 174.921C155.986 174.482 155.867 173.981 155.867 173.416C155.867 172.847 155.986 172.343 156.224 171.904C156.462 171.465 156.789 171.122 157.204 170.875C157.62 170.623 158.096 170.497 158.632 170.497C159.169 170.497 159.645 170.623 160.06 170.875C160.476 171.122 160.8 171.465 161.033 171.904C161.271 172.343 161.39 172.847 161.39 173.416C161.39 173.981 161.271 174.485 161.033 174.928C160.795 175.367 160.469 175.712 160.053 175.964C159.643 176.211 159.169 176.335 158.632 176.335ZM165.384 177H166.406V172.331C166.406 171.995 166.488 171.685 166.651 171.4C166.819 171.111 167.059 170.88 167.372 170.707C167.685 170.53 168.06 170.441 168.499 170.441C169.124 170.441 169.61 170.637 169.955 171.029C170.305 171.421 170.48 171.986 170.48 172.723V177H171.502V172.527C171.502 171.603 171.262 170.887 170.781 170.378C170.305 169.865 169.652 169.608 168.821 169.608C168.228 169.608 167.724 169.725 167.309 169.958C166.898 170.191 166.597 170.476 166.406 170.812V169.832H165.384V177Z"
      fill="white" fill-opacity="0.5" />
    <path
      d="M317.435 178H318.499V166.45H316.343V167.5H317.435V178ZM325.123 178.224C325.827 178.224 326.455 178.079 327.006 177.79C327.556 177.501 327.99 177.106 328.308 176.607C328.63 176.108 328.791 175.548 328.791 174.927C328.791 174.227 328.595 173.604 328.203 173.058C327.811 172.507 327.281 172.108 326.614 171.861C327.146 171.618 327.568 171.259 327.881 170.783C328.193 170.307 328.35 169.775 328.35 169.187C328.35 168.608 328.2 168.1 327.902 167.661C327.608 167.218 327.216 166.87 326.726 166.618C326.236 166.366 325.701 166.24 325.123 166.24C324.511 166.24 323.961 166.371 323.471 166.632C322.985 166.889 322.6 167.241 322.316 167.689C322.036 168.132 321.896 168.634 321.896 169.194C321.896 169.773 322.05 170.302 322.358 170.783C322.67 171.259 323.093 171.618 323.625 171.861C322.967 172.104 322.439 172.5 322.043 173.051C321.651 173.602 321.455 174.225 321.455 174.92C321.455 175.545 321.613 176.108 321.931 176.607C322.253 177.106 322.689 177.501 323.24 177.79C323.795 178.079 324.423 178.224 325.123 178.224ZM325.123 171.441C324.703 171.441 324.327 171.348 323.996 171.161C323.664 170.97 323.403 170.711 323.212 170.384C323.02 170.053 322.925 169.679 322.925 169.264C322.925 168.849 323.02 168.475 323.212 168.144C323.403 167.813 323.664 167.551 323.996 167.36C324.332 167.169 324.707 167.073 325.123 167.073C325.543 167.073 325.918 167.169 326.25 167.36C326.581 167.551 326.842 167.813 327.034 168.144C327.225 168.475 327.321 168.849 327.321 169.264C327.321 169.679 327.225 170.053 327.034 170.384C326.842 170.711 326.581 170.97 326.25 171.161C325.918 171.348 325.543 171.441 325.123 171.441ZM325.123 177.286C324.633 177.286 324.196 177.179 323.814 176.964C323.436 176.749 323.139 176.458 322.925 176.089C322.71 175.716 322.603 175.296 322.603 174.829C322.603 174.353 322.712 173.931 322.932 173.562C323.156 173.189 323.457 172.897 323.835 172.687C324.217 172.477 324.647 172.372 325.123 172.372C325.608 172.372 326.04 172.479 326.418 172.694C326.796 172.904 327.094 173.196 327.314 173.569C327.533 173.938 327.643 174.36 327.643 174.836C327.643 175.303 327.535 175.72 327.321 176.089C327.106 176.458 326.81 176.749 326.432 176.964C326.054 177.179 325.617 177.286 325.123 177.286Z"
      fill="white" fill-opacity="0.5" />
    <path
      d="M110.945 173C110.945 189.569 97.5139 203 80.9453 203C64.3768 203 50.9453 189.569 50.9453 173C50.9453 156.431 64.3768 143 80.9453 143C97.5139 143 110.945 156.431 110.945 173Z"
      fill="#414A5E" />
    <path
      d="M91.4859 166.514C91.4859 172.335 86.7667 177.054 80.9453 177.054C75.1239 177.054 70.4048 172.335 70.4048 166.514C70.4048 160.692 75.1239 155.973 80.9453 155.973C86.7667 155.973 91.4859 160.692 91.4859 166.514Z"
      fill="#414A5E" />
    <path
      d="M110.445 173C110.445 189.292 97.2377 202.5 80.9453 202.5C64.6529 202.5 51.4453 189.292 51.4453 173C51.4453 156.708 64.6529 143.5 80.9453 143.5C97.2377 143.5 110.445 156.708 110.445 173ZM90.9859 166.514C90.9859 172.059 86.4906 176.554 80.9453 176.554C75.4001 176.554 70.9048 172.059 70.9048 166.514C70.9048 160.968 75.4001 156.473 80.9453 156.473C86.4906 156.473 90.9859 160.968 90.9859 166.514ZM80.9453 177.554C87.0428 177.554 91.9859 172.611 91.9859 166.514C91.9859 160.416 87.0428 155.473 80.9453 155.473C74.8478 155.473 69.9048 160.416 69.9048 166.514C69.9048 172.611 74.8478 177.554 80.9453 177.554Z"
      stroke="white" stroke-opacity="0.5" />
  </g>
  <defs>
    <filter id="a98cad11-2d65-47e1-8191-a8393293c7bc" x="0.972656" y="0" width="342.728" height="74"
      filterUnits="userSpaceOnUse" color-interpolation-filters="sRGB">
      <feFlood flood-opacity="0" result="BackgroundImageFix" />
      <feBlend mode="normal" in="SourceGraphic" in2="BackgroundImageFix" result="shape" />
      <feGaussianBlur stdDeviation="3.5" result="effect1_foregroundBlur" />
    </filter>
    <filter id="f42cdb75-9ae4-4f6a-add5-a2fa13776005" x="0" y="68" width="342.728" height="74"
      filterUnits="userSpaceOnUse" color-interpolation-filters="sRGB">
      <feFlood flood-opacity="0" result="BackgroundImageFix" />
      <feBlend mode="normal" in="SourceGraphic" in2="BackgroundImageFix" result="shape" />
      <feGaussianBlur stdDeviation="3.5" result="effect1_foregroundBlur" />
    </filter>
    <filter id="f460f28e-9d40-4037-b0c1-50250db006a6" x="1.94531" y="136" width="342.728" height="74"
      filterUnits="userSpaceOnUse" color-interpolation-filters="sRGB">
      <feFlood flood-opacity="0" result="BackgroundImageFix" />
      <feBlend mode="normal" in="SourceGraphic" in2="BackgroundImageFix" result="shape" />
      <feGaussianBlur stdDeviation="3.5" result="effect1_foregroundBlur" />
    </filter>
  </defs>
</svg>