<svg width="338" height="210" viewBox="0 0 338 210" fill="none" xmlns="http://www.w3.org/2000/svg">
  <g filter="url(#591b2477-26fa-4bec-95b3-827eeb95e418)">
    <path
      d="M10.0096 41H11.0736V29.45H8.9176V30.5H10.0096V41ZM16.2478 41.224C17.0271 41.224 17.6618 41.014 18.1518 40.594C18.6465 40.174 18.8938 39.6047 18.8938 38.886C18.8938 38.466 18.8075 38.1347 18.6348 37.892C18.4621 37.6447 18.2195 37.4417 17.9068 37.283C17.5941 37.1197 17.2301 36.961 16.8148 36.807C16.5255 36.695 16.2548 36.583 16.0028 36.471C15.7555 36.359 15.5548 36.226 15.4008 36.072C15.2468 35.9133 15.1698 35.7127 15.1698 35.47C15.1698 35.1387 15.2911 34.8703 15.5338 34.665C15.7811 34.4597 16.1008 34.357 16.4928 34.357C17.1321 34.357 17.6665 34.6393 18.0958 35.204L18.5648 34.609C18.2848 34.2917 17.9675 34.0467 17.6128 33.874C17.2628 33.7013 16.8871 33.615 16.4858 33.615C16.0471 33.615 15.6551 33.699 15.3098 33.867C14.9645 34.0303 14.6938 34.2567 14.4978 34.546C14.3018 34.8307 14.2038 35.1573 14.2038 35.526C14.2038 35.89 14.2948 36.191 14.4768 36.429C14.6635 36.6623 14.8991 36.856 15.1838 37.01C15.4685 37.164 15.7625 37.3017 16.0658 37.423C16.4531 37.5723 16.7798 37.7053 17.0458 37.822C17.3118 37.9387 17.5125 38.0787 17.6478 38.242C17.7878 38.4053 17.8578 38.6317 17.8578 38.921C17.8578 39.3877 17.6991 39.7563 17.3818 40.027C17.0645 40.2977 16.6841 40.433 16.2408 40.433C15.8021 40.433 15.4031 40.307 15.0438 40.055C14.6845 39.7983 14.3928 39.4413 14.1688 38.984L13.6228 39.572C13.8748 40.0993 14.2271 40.5077 14.6798 40.797C15.1325 41.0817 15.6551 41.224 16.2478 41.224ZM22.9794 41.224C23.4367 41.224 23.8381 41.1167 24.1834 40.902L23.9244 40.09C23.7191 40.244 23.4764 40.321 23.1964 40.321C22.6037 40.321 22.3074 39.9127 22.3074 39.096V34.602H24.0924V33.832H22.3074V31.151H21.2854V33.832H20.5574V34.602H21.2854V39.152C21.2854 39.81 21.4324 40.321 21.7264 40.685C22.0251 41.0443 22.4427 41.224 22.9794 41.224Z"
      fill="white" fill-opacity="0.5" />
    <path
      d="M129.729 41H130.87L132.291 37.318H137.254L138.661 41H139.809L135.266 29.45H134.279L129.729 41ZM132.648 36.38L134.769 30.85L136.89 36.38H132.648ZM142.071 41H143.093V36.331C143.093 35.995 143.175 35.6847 143.338 35.4C143.506 35.1107 143.747 34.8797 144.059 34.707C144.372 34.5297 144.748 34.441 145.186 34.441C145.812 34.441 146.297 34.637 146.642 35.029C146.992 35.421 147.167 35.9857 147.167 36.723V41H148.189V36.527C148.189 35.603 147.949 34.8867 147.468 34.378C146.992 33.8647 146.339 33.608 145.508 33.608C144.916 33.608 144.412 33.7247 143.996 33.958C143.586 34.1913 143.285 34.476 143.093 34.812V33.832H142.071V41ZM151.067 41H152.089V36.331C152.089 35.995 152.171 35.6847 152.334 35.4C152.502 35.1107 152.743 34.8797 153.055 34.707C153.368 34.5297 153.744 34.441 154.182 34.441C154.808 34.441 155.293 34.637 155.638 35.029C155.988 35.421 156.163 35.9857 156.163 36.723V41H157.185V36.527C157.185 35.603 156.945 34.8867 156.464 34.378C155.988 33.8647 155.335 33.608 154.504 33.608C153.912 33.608 153.408 33.7247 152.992 33.958C152.582 34.1913 152.281 34.476 152.089 34.812V33.832H151.067V41ZM163.424 41.224C164.138 41.224 164.786 41.07 165.37 40.762C165.958 40.454 166.422 40.0223 166.763 39.467L166.007 39.061C165.409 39.9383 164.562 40.377 163.466 40.377C162.896 40.377 162.39 40.2557 161.947 40.013C161.503 39.7657 161.156 39.4273 160.904 38.998C160.656 38.564 160.533 38.0693 160.533 37.514H166.987C166.996 37.4627 167.001 37.4183 167.001 37.381C167.005 37.3437 167.008 37.2993 167.008 37.248C166.989 36.534 166.816 35.904 166.49 35.358C166.168 34.8073 165.729 34.378 165.174 34.07C164.623 33.762 163.993 33.608 163.284 33.608C162.766 33.608 162.278 33.706 161.821 33.902C161.368 34.098 160.969 34.371 160.624 34.721C160.278 35.071 160.008 35.4793 159.812 35.946C159.616 36.408 159.518 36.9073 159.518 37.444C159.518 38.158 159.686 38.802 160.022 39.376C160.362 39.9453 160.827 40.3957 161.415 40.727C162.003 41.0583 162.672 41.224 163.424 41.224ZM160.589 36.744C160.649 36.2913 160.803 35.8947 161.051 35.554C161.303 35.2087 161.622 34.9403 162.01 34.749C162.397 34.553 162.826 34.455 163.298 34.455C163.76 34.455 164.182 34.553 164.565 34.749C164.947 34.945 165.265 35.2157 165.517 35.561C165.769 35.9063 165.925 36.3007 165.986 36.744H160.589ZM172.731 41H173.795L175.076 31.431L178.373 40.293H179.136L182.433 31.431L183.714 41H184.778L183.28 29.45H182.153L178.751 38.487L175.356 29.45H174.229L172.731 41ZM190.562 41.224C191.197 41.224 191.773 41.07 192.291 40.762C192.809 40.454 193.222 40.0293 193.53 39.488V41H194.552V33.832H193.53V35.323C193.259 34.7863 192.858 34.3663 192.326 34.063C191.799 33.7597 191.211 33.608 190.562 33.608C189.881 33.608 189.269 33.7737 188.728 34.105C188.191 34.4317 187.767 34.882 187.454 35.456C187.146 36.03 186.992 36.681 186.992 37.409C186.992 38.1463 187.148 38.802 187.461 39.376C187.778 39.95 188.205 40.4027 188.742 40.734C189.279 41.0607 189.885 41.224 190.562 41.224ZM190.814 40.335C190.282 40.335 189.806 40.209 189.386 39.957C188.971 39.705 188.644 39.3597 188.406 38.921C188.168 38.4823 188.049 37.9807 188.049 37.416C188.049 36.8467 188.168 36.3427 188.406 35.904C188.644 35.4653 188.971 35.1223 189.386 34.875C189.801 34.623 190.277 34.497 190.814 34.497C191.351 34.497 191.827 34.623 192.242 34.875C192.657 35.1223 192.982 35.4653 193.215 35.904C193.453 36.3427 193.572 36.8467 193.572 37.416C193.572 37.9807 193.453 38.4847 193.215 38.928C192.977 39.3667 192.65 39.712 192.235 39.964C191.824 40.2113 191.351 40.335 190.814 40.335ZM197.565 41H198.587V36.268C198.587 35.9647 198.678 35.68 198.86 35.414C199.047 35.1433 199.287 34.924 199.581 34.756C199.88 34.588 200.193 34.504 200.519 34.504C200.879 34.504 201.21 34.5763 201.513 34.721L201.933 33.86C201.583 33.692 201.182 33.608 200.729 33.608C199.763 33.608 199.049 34.035 198.587 34.889V33.832H197.565V41ZM204.331 32.397C204.518 32.397 204.677 32.3317 204.807 32.201C204.938 32.0703 205.003 31.9117 205.003 31.725C205.003 31.5383 204.938 31.382 204.807 31.256C204.677 31.1253 204.518 31.06 204.331 31.06C204.145 31.06 203.986 31.1253 203.855 31.256C203.729 31.382 203.666 31.5383 203.666 31.725C203.666 31.9117 203.729 32.0703 203.855 32.201C203.986 32.3317 204.145 32.397 204.331 32.397ZM203.82 41H204.842V33.832H203.82V41ZM211.22 41.224C211.934 41.224 212.583 41.07 213.166 40.762C213.754 40.454 214.219 40.0223 214.559 39.467L213.803 39.061C213.206 39.9383 212.359 40.377 211.262 40.377C210.693 40.377 210.187 40.2557 209.743 40.013C209.3 39.7657 208.952 39.4273 208.7 38.998C208.453 38.564 208.329 38.0693 208.329 37.514H214.783C214.793 37.4627 214.797 37.4183 214.797 37.381C214.802 37.3437 214.804 37.2993 214.804 37.248C214.786 36.534 214.613 35.904 214.286 35.358C213.964 34.8073 213.526 34.378 212.97 34.07C212.42 33.762 211.79 33.608 211.08 33.608C210.562 33.608 210.075 33.706 209.617 33.902C209.165 34.098 208.766 34.371 208.42 34.721C208.075 35.071 207.804 35.4793 207.608 35.946C207.412 36.408 207.314 36.9073 207.314 37.444C207.314 38.158 207.482 38.802 207.818 39.376C208.159 39.9453 208.623 40.3957 209.211 40.727C209.799 41.0583 210.469 41.224 211.22 41.224ZM208.385 36.744C208.446 36.2913 208.6 35.8947 208.847 35.554C209.099 35.2087 209.419 34.9403 209.806 34.749C210.194 34.553 210.623 34.455 211.094 34.455C211.556 34.455 211.979 34.553 212.361 34.749C212.744 34.945 213.061 35.2157 213.313 35.561C213.565 35.9063 213.722 36.3007 213.782 36.744H208.385ZM221.186 41H227.087V40.062H222.25V29.45H221.186V41ZM230.528 41.224C230.729 41.224 230.897 41.154 231.032 41.014C231.172 40.874 231.242 40.7037 231.242 40.503C231.242 40.307 231.172 40.139 231.032 39.999C230.897 39.859 230.729 39.789 230.528 39.789C230.332 39.789 230.164 39.859 230.024 39.999C229.884 40.139 229.814 40.307 229.814 40.503C229.814 40.7037 229.884 40.874 230.024 41.014C230.164 41.154 230.332 41.224 230.528 41.224Z"
      fill="white" fill-opacity="0.5" />
    <path
      d="M312.331 42.224C313.073 42.224 313.71 42.0817 314.242 41.797C314.779 41.5123 315.189 41.125 315.474 40.635C315.763 40.1403 315.908 39.5827 315.908 38.962C315.908 38.2247 315.717 37.5993 315.334 37.086C314.951 36.568 314.48 36.218 313.92 36.036C314.461 35.8213 314.895 35.469 315.222 34.979C315.553 34.489 315.719 33.943 315.719 33.341C315.719 32.7623 315.577 32.2397 315.292 31.773C315.007 31.3017 314.62 30.9283 314.13 30.653C313.64 30.3777 313.089 30.24 312.478 30.24C311.918 30.24 311.402 30.3637 310.931 30.611C310.46 30.8537 310.075 31.1897 309.776 31.619C309.477 32.0437 309.305 32.5313 309.258 33.082L310.154 33.383C310.173 32.9677 310.287 32.592 310.497 32.256C310.707 31.9153 310.985 31.647 311.33 31.451C311.675 31.2503 312.053 31.15 312.464 31.15C312.875 31.15 313.248 31.248 313.584 31.444C313.925 31.6353 314.198 31.899 314.403 32.235C314.608 32.5663 314.711 32.942 314.711 33.362C314.711 33.782 314.604 34.1693 314.389 34.524C314.179 34.8787 313.894 35.1633 313.535 35.378C313.176 35.588 312.77 35.693 312.317 35.693H311.932V36.498C312.067 36.4607 312.214 36.442 312.373 36.442C312.821 36.442 313.229 36.5563 313.598 36.785C313.967 37.009 314.261 37.3147 314.48 37.702C314.699 38.0847 314.809 38.514 314.809 38.99C314.809 39.6573 314.585 40.201 314.137 40.621C313.689 41.0363 313.087 41.244 312.331 41.244C311.818 41.244 311.36 41.146 310.959 40.95C310.558 40.7493 310.24 40.4717 310.007 40.117C309.778 39.7577 309.659 39.3447 309.65 38.878L308.628 39.235C308.689 39.8277 308.882 40.3503 309.209 40.803C309.536 41.251 309.967 41.601 310.504 41.853C311.041 42.1003 311.65 42.224 312.331 42.224ZM323.068 42.224C324.011 42.224 324.834 41.9743 325.539 41.475C326.244 40.971 326.792 40.271 327.184 39.375C327.581 38.4743 327.779 37.4267 327.779 36.232C327.779 35.0373 327.581 33.992 327.184 33.096C326.792 32.1953 326.244 31.4953 325.539 30.996C324.834 30.492 324.011 30.24 323.068 30.24C322.13 30.24 321.306 30.492 320.597 30.996C319.892 31.4953 319.342 32.1953 318.945 33.096C318.553 33.992 318.357 35.0373 318.357 36.232C318.357 37.4267 318.553 38.4743 318.945 39.375C319.342 40.271 319.892 40.971 320.597 41.475C321.306 41.9743 322.13 42.224 323.068 42.224ZM323.068 41.265C322.349 41.265 321.719 41.0573 321.178 40.642C320.641 40.2267 320.224 39.641 319.925 38.885C319.631 38.129 319.484 37.2447 319.484 36.232C319.484 35.2147 319.631 34.3303 319.925 33.579C320.224 32.823 320.641 32.2373 321.178 31.822C321.719 31.4067 322.349 31.199 323.068 31.199C323.787 31.199 324.414 31.4067 324.951 31.822C325.488 32.2373 325.905 32.823 326.204 33.579C326.503 34.3303 326.652 35.2147 326.652 36.232C326.652 37.2447 326.503 38.129 326.204 38.885C325.905 39.641 325.488 40.2267 324.951 40.642C324.414 41.0573 323.787 41.265 323.068 41.265Z"
      fill="white" fill-opacity="0.5" />
    <circle cx="79.9726" cy="37" r="29" fill="#414A5E" stroke="white" stroke-width="2" />
    <path
      d="M90.3239 30.5135C90.3239 36.2304 85.6895 40.8648 79.9726 40.8648C74.2557 40.8648 69.6212 36.2304 69.6212 30.5135C69.6212 24.7966 74.2557 20.1621 79.9726 20.1621C85.6895 20.1621 90.3239 24.7966 90.3239 30.5135Z"
      stroke="white" stroke-width="2" />
    <path d="M56.0536 53.6216C68.6212 42.6756 91.3239 42.6756 103.891 53.6216" stroke="white" stroke-width="2" />
  </g>
  <g filter="url(#33176714-0a2e-4b1c-98f5-a174ea39dafe)">
    <path
      d="M7.882 109H16.065V107.999H10.045C11.1883 107.108 12.1357 106.328 12.887 105.661C13.6383 104.994 14.2287 104.401 14.658 103.883C15.092 103.36 15.4 102.873 15.582 102.42C15.764 101.967 15.855 101.508 15.855 101.041C15.855 100.318 15.6823 99.669 15.337 99.095C14.9917 98.521 14.525 98.0683 13.937 97.737C13.349 97.401 12.6933 97.233 11.97 97.233C11.2747 97.233 10.6423 97.3917 10.073 97.709C9.50367 98.0217 9.03933 98.451 8.68 98.997C8.32533 99.5383 8.113 100.154 8.043 100.845L9.002 101.167C9.05333 100.602 9.212 100.101 9.478 99.662C9.74867 99.2187 10.0963 98.871 10.521 98.619C10.9457 98.367 11.4123 98.241 11.921 98.241C12.4343 98.241 12.901 98.367 13.321 98.619C13.741 98.871 14.0747 99.2093 14.322 99.634C14.574 100.059 14.7 100.532 14.7 101.055C14.7 101.466 14.595 101.89 14.385 102.329C14.175 102.768 13.8157 103.265 13.307 103.82C12.7983 104.375 12.103 105.031 11.221 105.787C10.339 106.543 9.226 107.448 7.882 108.503V109ZM18.6769 109H19.6989V104.331C19.6989 103.995 19.7805 103.685 19.9439 103.4C20.1119 103.111 20.3522 102.88 20.6649 102.707C20.9775 102.53 21.3532 102.441 21.7919 102.441C22.4172 102.441 22.9025 102.637 23.2479 103.029C23.5979 103.421 23.7729 103.986 23.7729 104.723V109H24.7949V104.527C24.7949 103.603 24.5545 102.887 24.0739 102.378C23.5979 101.865 22.9445 101.608 22.1139 101.608C21.5212 101.608 21.0172 101.725 20.6019 101.958C20.1912 102.191 19.8902 102.476 19.6989 102.812V101.832H18.6769V109ZM30.732 109.224C31.3666 109.224 31.943 109.07 32.461 108.762C32.9836 108.454 33.3966 108.029 33.7 107.488V109H34.722V96.953H33.7V103.323C33.406 102.786 33 102.366 32.482 102.063C31.964 101.76 31.3853 101.608 30.746 101.608C30.06 101.608 29.4463 101.774 28.905 102.105C28.3683 102.432 27.9436 102.882 27.631 103.456C27.3183 104.03 27.162 104.683 27.162 105.416C27.162 106.153 27.3183 106.809 27.631 107.383C27.9483 107.957 28.3753 108.407 28.912 108.734C29.4533 109.061 30.06 109.224 30.732 109.224ZM30.977 108.335C30.4403 108.335 29.9643 108.209 29.549 107.957C29.1336 107.705 28.807 107.36 28.569 106.921C28.3356 106.482 28.219 105.983 28.219 105.423C28.219 104.854 28.338 104.35 28.576 103.911C28.814 103.468 29.1406 103.122 29.556 102.875C29.9713 102.623 30.4473 102.497 30.984 102.497C31.5206 102.497 31.9943 102.623 32.405 102.875C32.8203 103.122 33.147 103.468 33.385 103.911C33.623 104.35 33.742 104.854 33.742 105.423C33.742 105.988 33.623 106.489 33.385 106.928C33.147 107.367 32.8203 107.712 32.405 107.964C31.9896 108.211 31.5136 108.335 30.977 108.335Z"
      fill="white" fill-opacity="0.5" />
    <path
      d="M129.225 109H130.289L131.57 99.431L134.867 108.293H135.63L138.927 99.431L140.208 109H141.272L139.774 97.45H138.647L135.245 106.487L131.85 97.45H130.723L129.225 109ZM147.056 109.224C147.691 109.224 148.267 109.07 148.785 108.762C149.303 108.454 149.716 108.029 150.024 107.488V109H151.046V101.832H150.024V103.323C149.754 102.786 149.352 102.366 148.82 102.063C148.293 101.76 147.705 101.608 147.056 101.608C146.375 101.608 145.764 101.774 145.222 102.105C144.686 102.432 144.261 102.882 143.948 103.456C143.64 104.03 143.486 104.681 143.486 105.409C143.486 106.146 143.643 106.802 143.955 107.376C144.273 107.95 144.7 108.403 145.236 108.734C145.773 109.061 146.38 109.224 147.056 109.224ZM147.308 108.335C146.776 108.335 146.3 108.209 145.88 107.957C145.465 107.705 145.138 107.36 144.9 106.921C144.662 106.482 144.543 105.981 144.543 105.416C144.543 104.847 144.662 104.343 144.9 103.904C145.138 103.465 145.465 103.122 145.88 102.875C146.296 102.623 146.772 102.497 147.308 102.497C147.845 102.497 148.321 102.623 148.736 102.875C149.152 103.122 149.476 103.465 149.709 103.904C149.947 104.343 150.066 104.847 150.066 105.416C150.066 105.981 149.947 106.485 149.709 106.928C149.471 107.367 149.145 107.712 148.729 107.964C148.319 108.211 147.845 108.335 147.308 108.335ZM154.06 109H155.082V104.268C155.082 103.965 155.173 103.68 155.355 103.414C155.541 103.143 155.782 102.924 156.076 102.756C156.374 102.588 156.687 102.504 157.014 102.504C157.373 102.504 157.704 102.576 158.008 102.721L158.428 101.86C158.078 101.692 157.676 101.608 157.224 101.608C156.258 101.608 155.544 102.035 155.082 102.889V101.832H154.06V109ZM160.825 100.397C161.012 100.397 161.171 100.332 161.301 100.201C161.432 100.07 161.497 99.9117 161.497 99.725C161.497 99.5383 161.432 99.382 161.301 99.256C161.171 99.1253 161.012 99.06 160.825 99.06C160.639 99.06 160.48 99.1253 160.349 99.256C160.223 99.382 160.16 99.5383 160.16 99.725C160.16 99.9117 160.223 100.07 160.349 100.201C160.48 100.332 160.639 100.397 160.825 100.397ZM160.314 109H161.336V101.832H160.314V109ZM167.778 109.224C168.524 109.224 169.196 109.063 169.794 108.741C170.396 108.419 170.872 107.971 171.222 107.397C171.572 106.823 171.747 106.163 171.747 105.416C171.747 104.665 171.572 104.004 171.222 103.435C170.872 102.861 170.396 102.413 169.794 102.091C169.196 101.769 168.524 101.608 167.778 101.608C167.031 101.608 166.357 101.769 165.755 102.091C165.157 102.413 164.684 102.861 164.334 103.435C163.984 104.004 163.809 104.665 163.809 105.416C163.809 106.163 163.984 106.823 164.334 107.397C164.684 107.971 165.157 108.419 165.755 108.741C166.357 109.063 167.031 109.224 167.778 109.224ZM167.778 108.314C167.218 108.314 166.718 108.19 166.28 107.943C165.841 107.696 165.496 107.355 165.244 106.921C164.992 106.482 164.866 105.981 164.866 105.416C164.866 104.851 164.992 104.352 165.244 103.918C165.496 103.479 165.841 103.136 166.28 102.889C166.718 102.642 167.218 102.518 167.778 102.518C168.338 102.518 168.837 102.642 169.276 102.889C169.714 103.136 170.06 103.479 170.312 103.918C170.564 104.352 170.69 104.851 170.69 105.416C170.69 105.981 170.564 106.482 170.312 106.921C170.06 107.355 169.714 107.696 169.276 107.943C168.837 108.19 168.338 108.314 167.778 108.314ZM177.696 109H181.098C182.227 109 183.111 108.727 183.751 108.181C184.395 107.635 184.717 106.877 184.717 105.906C184.717 105.085 184.483 104.42 184.017 103.911C183.55 103.402 182.887 103.09 182.029 102.973C183.139 102.511 183.695 101.643 183.695 100.369C183.695 99.4217 183.382 98.6983 182.757 98.199C182.136 97.6997 181.263 97.45 180.139 97.45H177.696V109ZM178.76 102.644V98.297H179.95C180.827 98.297 181.501 98.486 181.973 98.864C182.444 99.2373 182.68 99.774 182.68 100.474C182.68 101.169 182.444 101.706 181.973 102.084C181.501 102.457 180.827 102.644 179.95 102.644H178.76ZM178.76 108.132V103.582H180.818C181.709 103.582 182.4 103.785 182.89 104.191C183.384 104.592 183.632 105.155 183.632 105.878C183.632 106.597 183.387 107.152 182.897 107.544C182.411 107.936 181.718 108.132 180.818 108.132H178.76ZM188.048 109.224C188.249 109.224 188.417 109.154 188.552 109.014C188.692 108.874 188.762 108.704 188.762 108.503C188.762 108.307 188.692 108.139 188.552 107.999C188.417 107.859 188.249 107.789 188.048 107.789C187.852 107.789 187.684 107.859 187.544 107.999C187.404 108.139 187.334 108.307 187.334 108.503C187.334 108.704 187.404 108.874 187.544 109.014C187.684 109.154 187.852 109.224 188.048 109.224Z"
      fill="white" fill-opacity="0.5" />
    <path
      d="M309.249 110H317.432V108.999H311.412C312.556 108.108 313.503 107.328 314.254 106.661C315.006 105.994 315.596 105.401 316.025 104.883C316.459 104.36 316.767 103.873 316.949 103.42C317.131 102.967 317.222 102.508 317.222 102.041C317.222 101.318 317.05 100.669 316.704 100.095C316.359 99.521 315.892 99.0683 315.304 98.737C314.716 98.401 314.061 98.233 313.337 98.233C312.642 98.233 312.01 98.3917 311.44 98.709C310.871 99.0217 310.407 99.451 310.047 99.997C309.693 100.538 309.48 101.154 309.41 101.845L310.369 102.167C310.421 101.602 310.579 101.101 310.845 100.662C311.116 100.219 311.464 99.871 311.888 99.619C312.313 99.367 312.78 99.241 313.288 99.241C313.802 99.241 314.268 99.367 314.688 99.619C315.108 99.871 315.442 100.209 315.689 100.634C315.941 101.059 316.067 101.532 316.067 102.055C316.067 102.466 315.962 102.89 315.752 103.329C315.542 103.768 315.183 104.265 314.674 104.82C314.166 105.375 313.47 106.031 312.588 106.787C311.706 107.543 310.593 108.448 309.249 109.503V110ZM324.755 110H325.77V107.774H327.114V106.836H325.77V98.45H324.713L318.966 107.298V107.774H324.755V110ZM320.352 106.836L324.755 99.927V106.836H320.352Z"
      fill="white" fill-opacity="0.5" />
    <circle cx="79" cy="105" r="29" fill="#414A5E" stroke="white" stroke-width="2" />
    <path
      d="M89.3513 98.5135C89.3513 104.23 84.7169 108.865 79 108.865C73.2831 108.865 68.6486 104.23 68.6486 98.5135C68.6486 92.7966 73.2831 88.1621 79 88.1621C84.7169 88.1621 89.3513 92.7966 89.3513 98.5135Z"
      stroke="white" stroke-width="2" />
    <path d="M55.0811 121.622C67.6486 110.676 90.3513 110.676 102.919 121.622" stroke="white" stroke-width="2" />
  </g>
  <g filter="url(#a12c64f1-963c-42ef-8459-3afd23e14a16)">
    <path
      d="M13.4811 177.224C14.2231 177.224 14.8601 177.082 15.3921 176.797C15.9288 176.512 16.3395 176.125 16.6241 175.635C16.9135 175.14 17.0581 174.583 17.0581 173.962C17.0581 173.225 16.8668 172.599 16.4841 172.086C16.1015 171.568 15.6301 171.218 15.0701 171.036C15.6115 170.821 16.0455 170.469 16.3721 169.979C16.7035 169.489 16.8691 168.943 16.8691 168.341C16.8691 167.762 16.7268 167.24 16.4421 166.773C16.1575 166.302 15.7701 165.928 15.2801 165.653C14.7901 165.378 14.2395 165.24 13.6281 165.24C13.0681 165.24 12.5525 165.364 12.0811 165.611C11.6098 165.854 11.2248 166.19 10.9261 166.619C10.6275 167.044 10.4548 167.531 10.4081 168.082L11.3041 168.383C11.3228 167.968 11.4371 167.592 11.6471 167.256C11.8571 166.915 12.1348 166.647 12.4801 166.451C12.8255 166.25 13.2035 166.15 13.6141 166.15C14.0248 166.15 14.3981 166.248 14.7341 166.444C15.0748 166.635 15.3478 166.899 15.5531 167.235C15.7585 167.566 15.8611 167.942 15.8611 168.362C15.8611 168.782 15.7538 169.169 15.5391 169.524C15.3291 169.879 15.0445 170.163 14.6851 170.378C14.3258 170.588 13.9198 170.693 13.4671 170.693H13.0821V171.498C13.2175 171.461 13.3645 171.442 13.5231 171.442C13.9711 171.442 14.3795 171.556 14.7481 171.785C15.1168 172.009 15.4108 172.315 15.6301 172.702C15.8495 173.085 15.9591 173.514 15.9591 173.99C15.9591 174.657 15.7351 175.201 15.2871 175.621C14.8391 176.036 14.2371 176.244 13.4811 176.244C12.9678 176.244 12.5105 176.146 12.1091 175.95C11.7078 175.749 11.3905 175.472 11.1571 175.117C10.9285 174.758 10.8095 174.345 10.8001 173.878L9.77813 174.235C9.8388 174.828 10.0325 175.35 10.3591 175.803C10.6858 176.251 11.1175 176.601 11.6541 176.853C12.1908 177.1 12.7998 177.224 13.4811 177.224ZM19.8154 177H20.8374V172.268C20.8374 171.965 20.9284 171.68 21.1104 171.414C21.297 171.143 21.5374 170.924 21.8314 170.756C22.13 170.588 22.4427 170.504 22.7694 170.504C23.1287 170.504 23.46 170.576 23.7634 170.721L24.1834 169.86C23.8334 169.692 23.432 169.608 22.9794 169.608C22.0134 169.608 21.2994 170.035 20.8374 170.889V169.832H19.8154V177ZM29.1361 177.224C29.7707 177.224 30.3471 177.07 30.8651 176.762C31.3877 176.454 31.8007 176.029 32.1041 175.488V177H33.1261V164.953H32.1041V171.323C31.8101 170.786 31.4041 170.366 30.8861 170.063C30.3681 169.76 29.7894 169.608 29.1501 169.608C28.4641 169.608 27.8504 169.774 27.3091 170.105C26.7724 170.432 26.3477 170.882 26.0351 171.456C25.7224 172.03 25.5661 172.683 25.5661 173.416C25.5661 174.153 25.7224 174.809 26.0351 175.383C26.3524 175.957 26.7794 176.407 27.3161 176.734C27.8574 177.061 28.4641 177.224 29.1361 177.224ZM29.3811 176.335C28.8444 176.335 28.3684 176.209 27.9531 175.957C27.5377 175.705 27.2111 175.36 26.9731 174.921C26.7397 174.482 26.6231 173.983 26.6231 173.423C26.6231 172.854 26.7421 172.35 26.9801 171.911C27.2181 171.468 27.5447 171.122 27.9601 170.875C28.3754 170.623 28.8514 170.497 29.3881 170.497C29.9247 170.497 30.3984 170.623 30.8091 170.875C31.2244 171.122 31.5511 171.468 31.7891 171.911C32.0271 172.35 32.1461 172.854 32.1461 173.423C32.1461 173.988 32.0271 174.489 31.7891 174.928C31.5511 175.367 31.2244 175.712 30.8091 175.964C30.3937 176.211 29.9177 176.335 29.3811 176.335Z"
      fill="white" fill-opacity="0.5" />
    <path
      d="M131.338 177H134.74C135.869 177 136.754 176.727 137.393 176.181C138.037 175.635 138.359 174.877 138.359 173.906C138.359 173.085 138.126 172.42 137.659 171.911C137.192 171.402 136.53 171.09 135.671 170.973C136.782 170.511 137.337 169.643 137.337 168.369C137.337 167.422 137.024 166.698 136.399 166.199C135.778 165.7 134.906 165.45 133.781 165.45H131.338V177ZM132.402 170.644V166.297H133.592C134.469 166.297 135.144 166.486 135.615 166.864C136.086 167.237 136.322 167.774 136.322 168.474C136.322 169.169 136.086 169.706 135.615 170.084C135.144 170.457 134.469 170.644 133.592 170.644H132.402ZM132.402 176.132V171.582H134.46C135.351 171.582 136.042 171.785 136.532 172.191C137.027 172.592 137.274 173.155 137.274 173.878C137.274 174.597 137.029 175.152 136.539 175.544C136.054 175.936 135.361 176.132 134.46 176.132H132.402ZM140.528 177H141.55V172.268C141.55 171.965 141.641 171.68 141.823 171.414C142.01 171.143 142.25 170.924 142.544 170.756C142.843 170.588 143.156 170.504 143.482 170.504C143.842 170.504 144.173 170.576 144.476 170.721L144.896 169.86C144.546 169.692 144.145 169.608 143.692 169.608C142.726 169.608 142.012 170.035 141.55 170.889V169.832H140.528V177ZM147.371 180.64H148.526L153.447 169.832H152.292L149.716 175.775L146.881 169.832H145.726L149.135 176.825L147.371 180.64ZM158.38 177.224C159.015 177.224 159.591 177.07 160.109 176.762C160.627 176.454 161.04 176.029 161.348 175.488V177H162.37V169.832H161.348V171.323C161.078 170.786 160.676 170.366 160.144 170.063C159.617 169.76 159.029 169.608 158.38 169.608C157.699 169.608 157.088 169.774 156.546 170.105C156.01 170.432 155.585 170.882 155.272 171.456C154.964 172.03 154.81 172.681 154.81 173.409C154.81 174.146 154.967 174.802 155.279 175.376C155.597 175.95 156.024 176.403 156.56 176.734C157.097 177.061 157.704 177.224 158.38 177.224ZM158.632 176.335C158.1 176.335 157.624 176.209 157.204 175.957C156.789 175.705 156.462 175.36 156.224 174.921C155.986 174.482 155.867 173.981 155.867 173.416C155.867 172.847 155.986 172.343 156.224 171.904C156.462 171.465 156.789 171.122 157.204 170.875C157.62 170.623 158.096 170.497 158.632 170.497C159.169 170.497 159.645 170.623 160.06 170.875C160.476 171.122 160.8 171.465 161.033 171.904C161.271 172.343 161.39 172.847 161.39 173.416C161.39 173.981 161.271 174.485 161.033 174.928C160.795 175.367 160.469 175.712 160.053 175.964C159.643 176.211 159.169 176.335 158.632 176.335ZM165.384 177H166.406V172.331C166.406 171.995 166.487 171.685 166.651 171.4C166.819 171.111 167.059 170.88 167.372 170.707C167.684 170.53 168.06 170.441 168.499 170.441C169.124 170.441 169.609 170.637 169.955 171.029C170.305 171.421 170.48 171.986 170.48 172.723V177H171.502V172.527C171.502 171.603 171.261 170.887 170.781 170.378C170.305 169.865 169.651 169.608 168.821 169.608C168.228 169.608 167.724 169.725 167.309 169.958C166.898 170.191 166.597 170.476 166.406 170.812V169.832H165.384V177Z"
      fill="white" fill-opacity="0.5" />
    <path
      d="M317.435 178H318.499V166.45H316.343V167.5H317.435V178ZM325.122 178.224C325.827 178.224 326.455 178.079 327.005 177.79C327.556 177.501 327.99 177.106 328.307 176.607C328.629 176.108 328.79 175.548 328.79 174.927C328.79 174.227 328.594 173.604 328.202 173.058C327.81 172.507 327.281 172.108 326.613 171.861C327.145 171.618 327.568 171.259 327.88 170.783C328.193 170.307 328.349 169.775 328.349 169.187C328.349 168.608 328.2 168.1 327.901 167.661C327.607 167.218 327.215 166.87 326.725 166.618C326.235 166.366 325.701 166.24 325.122 166.24C324.511 166.24 323.96 166.371 323.47 166.632C322.985 166.889 322.6 167.241 322.315 167.689C322.035 168.132 321.895 168.634 321.895 169.194C321.895 169.773 322.049 170.302 322.357 170.783C322.67 171.259 323.092 171.618 323.624 171.861C322.966 172.104 322.439 172.5 322.042 173.051C321.65 173.602 321.454 174.225 321.454 174.92C321.454 175.545 321.613 176.108 321.93 176.607C322.252 177.106 322.689 177.501 323.239 177.79C323.795 178.079 324.422 178.224 325.122 178.224ZM325.122 171.441C324.702 171.441 324.327 171.348 323.995 171.161C323.664 170.97 323.403 170.711 323.211 170.384C323.02 170.053 322.924 169.679 322.924 169.264C322.924 168.849 323.02 168.475 323.211 168.144C323.403 167.813 323.664 167.551 323.995 167.36C324.331 167.169 324.707 167.073 325.122 167.073C325.542 167.073 325.918 167.169 326.249 167.36C326.581 167.551 326.842 167.813 327.033 168.144C327.225 168.475 327.32 168.849 327.32 169.264C327.32 169.679 327.225 170.053 327.033 170.384C326.842 170.711 326.581 170.97 326.249 171.161C325.918 171.348 325.542 171.441 325.122 171.441ZM325.122 177.286C324.632 177.286 324.196 177.179 323.813 176.964C323.435 176.749 323.139 176.458 322.924 176.089C322.71 175.716 322.602 175.296 322.602 174.829C322.602 174.353 322.712 173.931 322.931 173.562C323.155 173.189 323.456 172.897 323.834 172.687C324.217 172.477 324.646 172.372 325.122 172.372C325.608 172.372 326.039 172.479 326.417 172.694C326.795 172.904 327.094 173.196 327.313 173.569C327.533 173.938 327.642 174.36 327.642 174.836C327.642 175.303 327.535 175.72 327.32 176.089C327.106 176.458 326.809 176.749 326.431 176.964C326.053 177.179 325.617 177.286 325.122 177.286Z"
      fill="white" fill-opacity="0.5" />
    <circle cx="80.9451" cy="173" r="29" fill="#414A5E" stroke="white" stroke-width="2" />
    <path
      d="M91.2965 166.513C91.2965 172.23 86.662 176.865 80.9451 176.865C75.2282 176.865 70.5938 172.23 70.5938 166.513C70.5938 160.797 75.2282 156.162 80.9451 156.162C86.662 156.162 91.2965 160.797 91.2965 166.513Z"
      stroke="white" stroke-width="2" />
    <path d="M57.0262 189.622C69.5938 178.676 92.2965 178.676 104.864 189.622" stroke="white" stroke-width="2" />
  </g>
  <defs>
    <filter id="591b2477-26fa-4bec-95b3-827eeb95e418" x="0.972595" y="0" width="342.728" height="74"
      filterUnits="userSpaceOnUse" color-interpolation-filters="sRGB">
      <feFlood flood-opacity="0" result="BackgroundImageFix" />
      <feBlend mode="normal" in="SourceGraphic" in2="BackgroundImageFix" result="shape" />
      <feGaussianBlur stdDeviation="3.5" result="effect1_foregroundBlur" />
    </filter>
    <filter id="33176714-0a2e-4b1c-98f5-a174ea39dafe" x="0" y="68" width="342.728" height="74"
      filterUnits="userSpaceOnUse" color-interpolation-filters="sRGB">
      <feFlood flood-opacity="0" result="BackgroundImageFix" />
      <feBlend mode="normal" in="SourceGraphic" in2="BackgroundImageFix" result="shape" />
      <feGaussianBlur stdDeviation="3.5" result="effect1_foregroundBlur" />
    </filter>
    <filter id="a12c64f1-963c-42ef-8459-3afd23e14a16" x="1.94513" y="136" width="342.728" height="74"
      filterUnits="userSpaceOnUse" color-interpolation-filters="sRGB">
      <feFlood flood-opacity="0" result="BackgroundImageFix" />
      <feBlend mode="normal" in="SourceGraphic" in2="BackgroundImageFix" result="shape" />
      <feGaussianBlur stdDeviation="3.5" result="effect1_foregroundBlur" />
    </filter>
  </defs>
</svg>