<svg viewBox="0 0 71 71" fill="none" xmlns="http://www.w3.org/2000/svg">
  <g clip-path="url(#clip0)">
    <path
      d="M3.85899 17.1805C3.85899 17.1805 3.47313 12.5902 5.17883 10.4839C6.88452 8.37751 11.4547 7.80058 11.4547 7.80058L13.7638 9.67051L6.16816 19.0504L3.85899 17.1805Z"
      fill="#E7636C" />
    <path
      d="M12.8861 5.69691C8.97796 10.8931 8.39715 15.1621 10.3696 19.4432L29.0461 31.0844C30.2795 28.7086 30.7435 26.0683 30.4747 23.5048C30.1146 20.087 28.4515 16.8062 25.5696 14.4725L14.4841 5.49567C13.9912 5.0965 13.2674 5.18992 12.8861 5.69691Z"
      fill="#DD4452" />
    <path
      d="M2.09879 19.0179C1.68215 19.4962 1.74126 20.2236 2.2342 20.6228L13.3196 29.5996C16.2016 31.9334 19.7565 32.878 23.1744 32.5196C25.7376 32.2496 28.2239 31.2466 30.2913 29.5463L15.4996 13.685C10.9018 12.6458 6.36885 14.1148 2.09879 19.0179Z"
      fill="#CD3B38" />
    <path
      d="M20.7449 54.9858C23.7765 58.4243 29.1402 59.9438 34.4906 58.4514C39.8411 56.9588 43.6438 52.8824 44.4577 48.3711C41.4261 44.9326 36.0624 43.4131 30.712 44.9055C25.3616 46.3981 21.5589 50.4745 20.7449 54.9858Z"
      fill="#9CE5AA" />
    <path
      d="M54.0925 27.7713C58.0862 30.0217 60.6877 34.9523 60.3403 40.4961C59.9928 46.04 56.7959 50.6071 52.5526 52.3411C48.5589 50.0907 45.9574 45.1601 46.3048 39.6164C46.6523 34.0726 49.8492 29.5053 54.0925 27.7713Z"
      fill="#9CE5AA" />
    <path
      d="M45.4186 48.2713C45.467 48.7315 45.1779 49.1729 44.7174 49.3015L29.9265 53.4273C29.4127 53.5705 28.88 53.2702 28.7368 52.7565C28.5934 52.2412 28.8939 51.7101 29.4075 51.5667L44.1983 47.4408C44.7121 47.2976 45.2449 47.598 45.3881 48.1116C45.4029 48.1648 45.413 48.2182 45.4186 48.2713Z"
      fill="#82CCA6" />
    <path
      d="M54.4737 36.9137C54.4793 36.9668 54.4805 37.0211 54.4771 37.0762L53.5166 52.4017C53.4832 52.934 53.0246 53.3385 52.4923 53.3051C51.96 53.2718 51.5556 52.8127 51.5889 52.2807L52.5494 36.9553C52.5827 36.4229 53.0413 36.0184 53.5736 36.0518C54.0508 36.0817 54.4254 36.4534 54.4737 36.9137Z"
      fill="#82CCA6" />
    <path
      d="M69.094 63.0408C68.4372 63.8519 67.3143 64.1969 66.2793 63.8183C47.7477 57.0408 42.9024 50.047 38.2167 43.2835C35.9321 39.9858 33.774 36.871 29.9453 33.7705C28.8674 32.8977 28.7012 31.3164 29.5741 30.2385C30.4469 29.1607 32.0282 28.9945 33.106 29.8673C37.4934 33.4201 39.9599 36.9804 42.3453 40.4234C46.7801 46.8246 50.9689 52.871 68.0044 59.1012C69.307 59.5777 69.9767 61.0198 69.5004 62.3223C69.4024 62.59 69.2637 62.8312 69.094 63.0408Z"
      fill="#82CCA6" />
    <path
      d="M3.6027 24.9915C3.18606 25.4698 3.24517 26.1973 3.73811 26.5964L14.8235 35.5732C17.7055 37.907 21.2604 38.8516 24.6783 38.4933C27.2415 38.2232 29.7278 37.2202 31.7952 35.52L16.5255 19.6719C11.9278 18.6327 7.87277 20.0885 3.6027 24.9915Z"
      fill="#DD4452" />
    <path
      d="M19.0495 5.91575C10.729 16.9688 17.4592 23.8263 31.7956 35.5206C32.4848 34.9532 33.1275 34.3085 33.7105 33.5884C36.0443 30.7065 36.9889 27.1516 36.6306 23.7336C36.2704 20.3159 34.6074 17.035 31.7254 14.7013L20.64 5.72449C20.1508 5.32855 19.4279 5.41294 19.0495 5.91575Z"
      fill="#E7636C" />
  </g>
  <defs>
    <clipPath id="clip0">
      <rect width="64" height="64" fill="white" transform="translate(6.68994 70.3394) rotate(-96)" />
    </clipPath>
  </defs>
</svg>