<svg viewBox="0 0 77 72" fill="none" xmlns="http://www.w3.org/2000/svg">
  <g filter="url(#84f4c24d-6223-4b0e-8970-51e70a92cda9)">
    <path
      d="M6.85899 17.1803C6.85899 17.1803 6.47313 12.5901 8.17883 10.4837C9.88452 8.37739 14.4547 7.80046 14.4547 7.80046L16.7638 9.67038L9.16816 19.0503L6.85899 17.1803Z"
      fill="url(#b07cc89f-090b-4eec-a3f8-59fc7630693a)" />
    <path
      d="M15.8861 5.69667C11.978 10.8928 11.3971 15.1619 13.3696 19.443L32.0461 31.0841C33.2795 28.7084 33.7435 26.068 33.4747 23.5046C33.1146 20.0868 31.4515 16.806 28.5696 14.4722L17.4841 5.49543C16.9912 5.09625 16.2674 5.18968 15.8861 5.69667Z"
      fill="url(#9eeb463c-e8d4-41a7-a2ef-fbc21bbf2828)" />
    <path
      d="M5.09879 19.0179C4.68215 19.4962 4.74126 20.2236 5.2342 20.6228L16.3196 29.5996C19.2016 31.9334 22.7565 32.878 26.1744 32.5196C28.7376 32.2496 31.2239 31.2466 33.2913 29.5463L18.4996 13.685C13.9018 12.6458 9.36885 14.1148 5.09879 19.0179Z"
      fill="url(#919ec559-a270-41db-9370-37a39176349f)" />
    <path
      d="M23.7449 54.9856C26.7765 58.4242 32.1402 59.9437 37.4906 58.4513C42.8411 56.9587 46.6438 52.8823 47.4577 48.371C44.4261 44.9325 39.0624 43.413 33.712 44.9054C28.3616 46.398 24.5589 50.4744 23.7449 54.9856Z"
      fill="url(#0756644c-094e-4301-93a5-9c309f232ecd)" />
    <path
      d="M57.0927 27.771C61.0864 30.0215 63.6879 34.952 63.3405 40.4958C62.993 46.0397 59.7961 50.6068 55.5528 52.3409C51.5591 50.0905 48.9576 45.1599 49.305 39.6161C49.6526 34.0723 52.8494 29.5051 57.0927 27.771Z"
      fill="url(#1556cbd5-1976-451c-9b45-6063f4d5194d)" />
    <path
      d="M48.4184 48.271C48.4667 48.7313 48.1776 49.1727 47.7171 49.3012L32.9263 53.427C32.4125 53.5703 31.8797 53.2699 31.7365 52.7563C31.5931 52.241 31.8937 51.7099 32.4073 51.5664L47.1981 47.4406C47.7119 47.2974 48.2447 47.5977 48.3878 48.1113C48.4026 48.1646 48.4128 48.218 48.4184 48.271Z"
      fill="#2E6125" />
    <path
      d="M57.474 36.9134C57.4796 36.9666 57.4808 37.0208 57.4774 37.076L56.5169 52.4014C56.4835 52.9337 56.0249 53.3383 55.4926 53.3049C54.9603 53.2716 54.5558 52.8125 54.5891 52.2805L55.5496 36.955C55.583 36.4227 56.0416 36.0182 56.5739 36.0516C57.0511 36.0814 57.4256 36.4532 57.474 36.9134Z"
      fill="#2E6125" />
    <path
      d="M72.094 63.0408C71.4372 63.8519 70.3143 64.1969 69.2793 63.8183C50.7477 57.0408 45.9024 50.047 41.2167 43.2835C38.9321 39.9858 36.774 36.871 32.9453 33.7705C31.8674 32.8977 31.7012 31.3164 32.5741 30.2385C33.4469 29.1607 35.0282 28.9945 36.106 29.8673C40.4934 33.4201 42.9599 36.9804 45.3453 40.4234C49.7801 46.8246 53.9689 52.871 71.0044 59.1012C72.307 59.5777 72.9767 61.0198 72.5004 62.3223C72.4024 62.59 72.2637 62.8312 72.094 63.0408Z"
      fill="url(#4122f48b-f20a-4a6a-9001-7ce23028066a)" />
    <path
      d="M6.6027 24.9915C6.18606 25.4698 6.24517 26.1973 6.73811 26.5964L17.8235 35.5732C20.7055 37.907 24.2604 38.8516 27.6783 38.4933C30.2415 38.2232 32.7278 37.2202 34.7952 35.52L19.5255 19.6719C14.9278 18.6327 10.8728 20.0885 6.6027 24.9915Z"
      fill="url(#3881cf62-8251-465d-b8d2-28f549a6ad3c)" />
    <path
      d="M22.0497 5.9155C13.7292 16.9686 20.4595 23.8261 34.7958 35.5203C35.4851 34.953 36.1278 34.3082 36.7108 33.5881C39.0445 30.7062 39.9891 27.1513 39.6308 23.7334C39.2707 20.3156 37.6076 17.0348 34.7257 14.7011L23.6402 5.72425C23.151 5.32831 22.4282 5.4127 22.0497 5.9155Z"
      fill="url(#5781d7bd-0f68-4e86-9091-5af29690c718)" />
  </g>
  <defs>
    <filter id="84f4c24d-6223-4b0e-8970-51e70a92cda9" x="0.821289" y="5.24731" width="75.8324" height="66.7246"
      filterUnits="userSpaceOnUse" color-interpolation-filters="sRGB">
      <feFlood flood-opacity="0" result="BackgroundImageFix" />
      <feColorMatrix in="SourceAlpha" type="matrix" values="0 0 0 0 0 0 0 0 0 0 0 0 0 0 0 0 0 0 127 0" />
      <feOffset dy="4" />
      <feGaussianBlur stdDeviation="2" />
      <feColorMatrix type="matrix" values="0 0 0 0 0 0 0 0 0 0 0 0 0 0 0 0 0 0 0.45 0" />
      <feBlend mode="normal" in2="BackgroundImageFix" result="effect1_dropShadow" />
      <feBlend mode="normal" in="SourceGraphic" in2="effect1_dropShadow" result="shape" />
    </filter>
    <linearGradient id="b07cc89f-090b-4eec-a3f8-59fc7630693a" x1="12" y1="12.5" x2="8.44293" y2="10.084"
      gradientUnits="userSpaceOnUse">
      <stop stop-color="#FF96A3" />
      <stop offset="1" stop-color="#FF495F" />
    </linearGradient>
    <linearGradient id="9eeb463c-e8d4-41a7-a2ef-fbc21bbf2828" x1="19" y1="12.5" x2="14.5128" y2="9.21205"
      gradientUnits="userSpaceOnUse">
      <stop stop-color="#FF808F" />
      <stop offset="1" stop-color="#FF495F" />
    </linearGradient>
    <linearGradient id="919ec559-a270-41db-9370-37a39176349f" x1="13" y1="23.5" x2="5.11631" y2="13.8603"
      gradientUnits="userSpaceOnUse">
      <stop stop-color="#FF919E" />
      <stop offset="0.948519" stop-color="#F5003B" />
    </linearGradient>
    <linearGradient id="0756644c-094e-4301-93a5-9c309f232ecd" x1="-6.22304" y1="62.4654" x2="-7.36347" y2="47.1858"
      gradientUnits="userSpaceOnUse">
      <stop stop-color="#429634" />
      <stop offset="1" stop-color="#23491D" />
    </linearGradient>
    <linearGradient id="1556cbd5-1976-451c-9b45-6063f4d5194d" x1="32.4109" y1="53.4143" x2="31.9473" y2="27.5046"
      gradientUnits="userSpaceOnUse">
      <stop stop-color="#429634" />
      <stop offset="1" stop-color="#23491D" />
    </linearGradient>
    <linearGradient id="4122f48b-f20a-4a6a-9001-7ce23028066a" x1="-11.2593" y1="70.4013" x2="-13.3962" y2="29.5528"
      gradientUnits="userSpaceOnUse">
      <stop stop-color="#429634" />
      <stop offset="1" stop-color="#23491D" />
    </linearGradient>
    <linearGradient id="3881cf62-8251-465d-b8d2-28f549a6ad3c" x1="21" y1="41" x2="4.51491" y2="35.5197"
      gradientUnits="userSpaceOnUse">
      <stop stop-color="#FF7E9D" />
      <stop offset="1" stop-color="#E21C34" />
    </linearGradient>
    <linearGradient id="5781d7bd-0f68-4e86-9091-5af29690c718" x1="30.1699" y1="37.1696" x2="13.605" y2="10.7279"
      gradientUnits="userSpaceOnUse">
      <stop stop-color="#FF7E8E" />
      <stop offset="1" stop-color="#E21C34" />
    </linearGradient>
  </defs>
</svg>