<svg width="64" height="64" viewBox="0 0 64 64" fill="none" xmlns="http://www.w3.org/2000/svg">
  <g clip-path="url(#5765d4fc-7c82-477a-aafc-bdd5419cdae6)">
    <path d="M0 0L23.4076 21.716H23.428L27.6956 17.7576L8.551 0H0Z" fill="#FF8695" />
    <path d="M46.84 0L31.9998 13.7651L17.1595 0H8.55078L27.6954 17.7576H36.3042L55.4489 0H46.84Z" fill="#FFBFC7" />
    <path d="M55.4494 0L36.3047 17.7576L40.5723 21.716H40.5928L64.0003 0H55.4494Z" fill="#FF8695" />
    <path
      d="M34.8042 21.123H29.1953V12.9756C29.1953 11.4269 30.4508 10.1714 31.9996 10.1714H31.9999C33.5487 10.1714 34.8042 11.4269 34.8042 12.9756V21.123Z"
      fill="#6E6E7A" />
    <path
      d="M32.0001 63.9997C45.0598 63.9997 55.6468 53.4087 55.6468 40.3441C55.6468 27.2795 45.0598 16.6885 32.0001 16.6885C18.9405 16.6885 8.35352 27.2795 8.35352 40.3441C8.35352 53.4087 18.9405 63.9997 32.0001 63.9997Z"
      fill="#999FAD" />
    <path
      d="M32 59.0776C42.3413 59.0776 50.7246 50.6903 50.7246 40.344C50.7246 29.9977 42.3413 21.6104 32 21.6104C21.6587 21.6104 13.2754 29.9977 13.2754 40.344C13.2754 50.6903 21.6587 59.0776 32 59.0776Z"
      fill="#D5DAE4" />
    <path
      d="M32.0003 21.6108C31.1266 21.6108 30.2671 21.6723 29.4248 21.7888C38.5352 23.0483 45.5739 30.8888 45.5739 40.3445C45.5739 49.8001 38.5352 57.6405 29.4248 58.9C30.2671 59.0165 31.1266 59.078 32.0003 59.078C42.3251 59.078 50.7249 50.6741 50.7249 40.3443C50.7249 30.0146 42.3251 21.6108 32.0003 21.6108Z"
      fill="#C8CED9" />
    <path
      d="M18.4642 41.355C19.7071 41.355 19.7092 39.4233 18.4642 39.4233C17.2213 39.4233 17.2192 41.355 18.4642 41.355Z"
      fill="#999FAD" />
    <path d="M20.263 48.126C21.5059 48.126 21.508 46.1943 20.263 46.1943C19.0202 46.1943 19.018 48.126 20.263 48.126Z"
      fill="#999FAD" />
    <path
      d="M43.7083 48.1748C44.9512 48.1748 44.9533 46.2432 43.7083 46.2432C42.4655 46.2432 42.4633 48.1748 43.7083 48.1748Z"
      fill="#999FAD" />
    <path
      d="M45.5355 41.4101C46.7784 41.4101 46.7805 39.4785 45.5355 39.4785C44.2926 39.4785 44.2905 41.4101 45.5355 41.4101Z"
      fill="#999FAD" />
    <path
      d="M43.7367 34.6387C44.9795 34.6387 44.9817 32.707 43.7367 32.707C42.4938 32.707 42.4917 34.6387 43.7367 34.6387Z"
      fill="#999FAD" />
    <path
      d="M20.2913 34.5903C21.5342 34.5903 21.5363 32.6587 20.2913 32.6587C19.0484 32.6587 19.0464 34.5903 20.2913 34.5903Z"
      fill="#999FAD" />
    <path
      d="M27.3015 50.5443C26.6897 50.3434 26.2135 49.8686 26.0278 49.2743C25.7214 48.293 26.107 47.7255 27.2675 46.2291C28.1575 45.0813 29.8102 42.95 32.5769 39.0566C33.325 38.004 34.0059 36.8451 34.1763 35.5489C34.0883 34.2094 32.9513 33.1601 31.5877 33.1601C30.3505 33.1601 29.28 34.0255 29.0423 35.2178C28.5822 37.5258 24.8884 36.8634 25.3587 34.5051C25.9414 31.5834 28.561 29.4629 31.5877 29.4629C35.088 29.4629 37.9358 32.2675 37.9358 35.715C37.9358 37.6705 36.7465 39.6371 35.6525 41.1768C34.2563 43.1415 32.8275 45.0815 31.3838 47.0114C33.1893 47.0023 34.9948 46.9904 36.8003 46.9691C37.8219 46.9691 38.6637 47.788 38.6764 48.7945C38.6894 49.8136 37.858 50.6533 36.823 50.6661C34.4143 50.6958 27.5499 50.6259 27.3015 50.5443Z"
      fill="#999FAD" />
  </g>
  <defs>
    <clipPath id="5765d4fc-7c82-477a-aafc-bdd5419cdae6">
      <rect width="64" height="64" fill="white" />
    </clipPath>
  </defs>
</svg>